<svg width="120" height="120" viewBox="0 0 120 120" fill="none" xmlns="http://www.w3.org/2000/svg">
<path d="M115.898 8.18799H4.10156C1.84008 8.18799 0 10.0281 0 12.2895V26.7259C0 28.9986 3.51562 28.9986 3.51562 26.7259V12.2895C3.51562 11.9666 3.77836 11.7036 4.10156 11.7036H115.898C116.222 11.7036 116.484 11.9666 116.484 12.2895V98.0096C116.484 98.3326 116.222 98.5955 115.898 98.5955H93.3722V94.9379H111.052C112.023 94.9379 112.81 94.1509 112.81 93.1801V74.7725C112.81 72.4998 109.294 72.4998 109.294 74.7725V91.4223H93.3722V83.623C93.4294 83.6279 93.487 83.6328 93.5412 83.6377C95.0004 83.7659 96.8154 83.9255 98.0728 82.6658C99.3288 81.4074 99.1699 79.5905 99.0422 78.1306C98.9046 76.5638 99.0527 76.1349 100.257 75.1339C103.357 72.5558 103.415 69.7953 100.257 67.1698C99.0527 66.1681 98.9053 65.7397 99.0422 64.1727C99.3862 60.2405 97.5497 58.3135 93.5412 58.6658C91.9767 58.8031 91.5523 58.6545 90.5548 57.4501C87.9806 54.3423 85.2183 54.2849 82.5963 57.4501C81.5988 58.6543 81.1746 58.8036 79.6102 58.6658C75.6752 58.3201 73.7578 60.167 74.1089 64.1727C74.2458 65.7399 74.0984 66.1681 72.8941 67.1698C69.7936 69.7477 69.7362 72.5087 72.8941 75.1339C74.0984 76.1356 74.2458 76.5641 74.1089 78.1311C73.7398 82.3426 75.7512 83.971 79.7784 83.6232V91.4227H10.706V18.8767H109.294V65.3975C109.294 67.6702 112.81 67.6702 112.81 65.3975V17.1188C112.81 16.1481 112.023 15.361 111.052 15.361H8.9482C7.97719 15.361 7.19039 16.1481 7.19039 17.1188V93.1801C7.19039 94.1509 7.97719 94.9379 8.9482 94.9379H79.7784V98.5955H4.10156C3.77836 98.5955 3.51562 98.3326 3.51562 98.0096V35.6319C3.51562 33.3592 0 33.3592 0 35.6319V98.0096C0 100.271 1.84008 102.111 4.10156 102.111H79.7784V110.068C80.0287 111.513 80.862 112.044 82.2776 111.662L86.5753 109.663L90.873 111.662C91.9364 112.156 93.3722 111.375 93.3722 110.068V102.111H115.898C118.16 102.111 120 100.271 120 98.0096V12.2895C120 10.0278 118.16 8.18799 115.898 8.18799ZM79.302 80.1352C77.5423 80.2902 77.457 80.1959 77.6107 78.4372C77.847 75.7379 77.2261 74.1629 75.1413 72.4299C73.7149 71.2438 73.7152 71.0588 75.1413 69.8727C77.2261 68.1397 77.8472 66.5647 77.6107 63.8656C77.457 62.1066 77.5423 62.0134 79.302 62.1673C82.0015 62.4052 83.5744 61.7797 85.3034 59.6921C86.4848 58.2662 86.6655 58.2662 87.847 59.6921C89.5765 61.7797 91.1489 62.4043 93.8484 62.1673C95.6084 62.0124 95.6934 62.1066 95.5397 63.8654C95.3034 66.5647 95.9243 68.1395 98.0091 69.8724C99.4352 71.0586 99.4359 71.244 98.0088 72.4299C95.9241 74.1631 95.303 75.7374 95.5395 78.4367C95.6939 80.1955 95.6081 80.2899 93.8487 80.1352C92.7445 80.0382 91.492 79.928 90.3895 80.386C89.3224 80.8292 88.5722 81.7346 87.8468 82.6105C87.5051 83.023 86.8814 83.776 86.5748 83.9108C86.2685 83.776 85.6448 83.023 85.3031 82.6105C84.5777 81.7348 83.8277 80.8292 82.7604 80.386C81.6227 80.0391 80.4698 79.9555 79.302 80.1352ZM87.3166 106.131C86.8465 105.912 86.3041 105.912 85.834 106.131L83.2941 107.312V85.6679C84.1282 86.585 85.1573 87.4365 86.5753 87.4365C87.9933 87.4365 89.0224 86.5852 89.8566 85.6681V107.312L87.3166 106.131Z" fill="#97C45E"/>
<path d="M22.796 33.5906H83.393C85.6657 33.5906 85.6657 30.075 83.393 30.075H22.796C20.5231 30.075 20.5231 33.5906 22.796 33.5906Z" fill="#97C45E"/>
<path d="M98.9618 42.5247C98.9618 41.5539 98.175 40.7668 97.2039 40.7668H22.796C20.5232 40.7668 20.5232 44.2825 22.796 44.2825H97.2042C98.175 44.2825 98.9618 43.4954 98.9618 42.5247Z" fill="#97C45E"/>
<path d="M66.8289 53.2163C66.8289 52.2455 66.0422 51.4585 65.0711 51.4585H22.796C20.5232 51.4585 20.5232 54.9741 22.796 54.9741H65.0711C66.0419 54.9741 66.8289 54.1871 66.8289 53.2163Z" fill="#97C45E"/>
<path d="M43.7464 77.7182C42.788 77.7198 41.8294 77.721 40.871 77.7217C39.0272 77.7231 38.0121 77.2316 37.6355 75.2764C37.2917 73.4917 34.7173 73.719 34.2455 75.2764C34.0367 75.9662 32.982 77.9408 32.0607 77.7793C31.5725 77.6938 31.3592 76.9407 31.1787 76.5507C30.8274 75.7916 30.5714 74.987 30.3523 74.1807C29.427 70.7743 29.2423 67.2177 28.6634 63.7471C28.3278 61.7345 25.26 62.3036 25.2106 64.2144C25.0531 70.3014 24.0579 76.3049 21.8909 82.0103C21.0868 84.1274 24.484 85.0429 25.2809 82.945C26.1164 80.7451 26.7797 78.4925 27.2944 76.2064C27.5705 77.0394 27.8998 77.8564 28.3018 78.6512C29.3283 80.68 31.422 81.8802 33.6621 80.9779C34.4616 80.6558 35.191 80.0929 35.8118 79.4078C37.475 81.3257 39.9492 81.2387 42.2576 81.2359C45.7374 81.2314 49.2171 81.2232 52.6971 81.2136C54.9591 81.2073 54.9633 77.6917 52.6971 77.698C49.7135 77.7064 46.73 77.7132 43.7464 77.7182Z" fill="#97C45E"/>
<path d="M86.5753 78.0172C90.3611 78.0172 93.4413 74.9373 93.4413 71.1514C93.4413 67.3656 90.3611 64.2856 86.5753 64.2856C82.7897 64.2856 79.7095 67.3658 79.7095 71.1514C79.7095 74.937 82.7894 78.0172 86.5753 78.0172ZM86.5753 67.8013C88.4226 67.8013 89.9257 69.3043 89.9257 71.1514C89.9257 72.9985 88.4226 74.5016 86.5753 74.5016C84.7279 74.5016 83.2251 72.9988 83.2251 71.1514C83.2251 69.3041 84.7279 67.8013 86.5753 67.8013Z" fill="#97C45E"/>
</svg>
