<svg width="100" height="100" viewBox="0 0 100 100" fill="none" xmlns="http://www.w3.org/2000/svg">
<g clip-path="url(#clip0)">
<path d="M31.4759 13.8277C31.8843 14.5357 32.7865 14.7623 33.4769 14.3639C34.1775 13.9594 34.4175 13.0635 34.013 12.3629L30.5097 6.29473C30.1052 5.59395 29.2091 5.35391 28.5087 5.75859C27.8082 6.16309 27.5681 7.05898 27.9726 7.75957L31.4759 13.8277ZM15.489 41.5178H8.48218C7.67319 41.5178 7.01733 42.1736 7.01733 42.9826C7.01733 43.7916 7.67319 44.4475 8.48218 44.4475H15.489C16.298 44.4475 16.9539 43.7916 16.9539 42.9826C16.9539 42.1736 16.298 41.5178 15.489 41.5178ZM50 9.93652C50.8089 9.93652 51.4648 9.28066 51.4648 8.47168V1.46484C51.4648 0.655859 50.8089 0 50 0C49.191 0 48.5351 0.655859 48.5351 1.46484V8.47168C48.5351 9.28066 49.191 9.93652 50 9.93652ZM66.523 14.3639C67.2119 14.7615 68.1154 14.5359 68.524 13.8277L72.0275 7.75957C72.432 7.05898 72.1919 6.16309 71.4914 5.75859C70.7908 5.35371 69.8949 5.59414 69.4904 6.29473L65.9869 12.3629C65.5822 13.0635 65.8222 13.9594 66.523 14.3639ZM91.5177 41.5178H84.5109C83.7019 41.5178 83.0461 42.1736 83.0461 42.9826C83.0461 43.7916 83.7019 44.4475 84.5109 44.4475H91.5177C92.3267 44.4475 92.9826 43.7916 92.9826 42.9826C92.9826 42.1736 92.3267 41.5178 91.5177 41.5178ZM87.224 21.4912C86.8195 20.7906 85.9238 20.5506 85.223 20.9551L79.1548 24.4586C78.4542 24.8631 78.2142 25.759 78.6187 26.4596C79.0273 27.1674 79.9298 27.3951 80.6197 26.9957L86.6878 23.4922C87.3884 23.0877 87.6285 22.192 87.224 21.4912ZM50.0001 15.3629C49.9998 15.3629 50 15.3629 49.9994 15.3629C46.4447 15.3629 42.9839 16.025 39.7144 17.3307C38.963 17.6307 38.5972 18.483 38.8972 19.2344C39.1972 19.9857 40.049 20.3516 40.8009 20.0516C43.7236 18.8844 46.8183 18.2928 49.9994 18.2928H50.0001C63.6427 18.293 74.7418 29.3807 74.7418 43.0088C74.7418 50.984 70.8546 58.5129 64.3435 63.1486C60.2007 66.0982 57.5847 70.6816 57.164 75.6129H51.4648V62.5387C51.6406 62.4295 51.808 62.3016 51.9605 62.149L60.373 53.7395C63.2468 50.8666 64.8296 47.0465 64.8296 42.983C64.8296 38.9193 63.2468 35.0994 60.373 32.2264L51.9607 23.817C50.8794 22.7359 49.1205 22.7359 48.0394 23.817L39.6271 32.2266C36.7533 35.0994 35.1705 38.9195 35.1705 42.9832C35.1705 47.0467 36.7533 50.8668 39.6271 53.7397L48.0394 62.1492C48.1919 62.3018 48.3593 62.4299 48.5351 62.5389V75.6131H42.8376C42.4265 70.6523 39.8548 66.1 35.7804 63.2367C29.175 58.5945 25.2414 51.0133 25.258 42.9568C25.2748 34.7844 29.3191 27.1611 36.0765 22.5645C36.7455 22.1094 36.9189 21.1982 36.4638 20.5295C36.0089 19.8607 35.0978 19.6871 34.4289 20.1422C26.8708 25.2834 22.3472 33.81 22.3283 42.9508C22.3095 51.9627 26.7087 60.4424 34.0958 65.6338C37.4724 68.0068 39.5978 71.7902 39.9224 75.9121C38.472 76.508 37.4474 77.9338 37.4474 79.5955V82.1129C37.4474 83.0672 37.7857 83.9437 38.3478 84.6303C37.7857 85.3168 37.4474 86.1934 37.4474 87.1477V89.665C37.4474 91.8609 39.2349 93.6473 41.4322 93.6473H42.8867V96.8566C42.8867 98.5902 44.297 100.001 46.0306 100.001H53.9689C55.7025 100.001 57.1128 98.5902 57.1128 96.8566V93.6473H58.5673C60.7646 93.6473 62.5519 91.8609 62.5519 89.665V87.1477C62.5519 86.1934 62.2136 85.3168 61.6515 84.6303C62.2136 83.9436 62.5519 83.0672 62.5519 82.1129V79.5955C62.5519 77.9344 61.5281 76.509 60.0787 75.9127C60.4128 71.8141 62.588 67.9951 66.0425 65.5355C73.324 60.3514 77.6712 51.9303 77.6712 43.0092C77.6714 27.7648 65.2584 15.3631 50.0001 15.3629ZM41.6982 51.6672C39.3779 49.3477 38.1001 46.2635 38.1001 42.9826C38.1001 39.7018 39.3779 36.6176 41.6982 34.298L50 25.999L58.3017 34.2979C60.6218 36.6174 61.8998 39.7016 61.8998 42.9824C61.8998 46.2631 60.6218 49.3475 58.3017 51.667L51.4648 58.5018V52.4533L54.8466 49.0725C55.4189 48.5004 55.4189 47.573 54.847 47.001C54.2749 46.4287 53.3476 46.4285 52.7755 47.0006L51.4648 48.3109V46.5668L54.8466 43.1859C55.4189 42.6139 55.4189 41.6865 54.847 41.1145C54.2749 40.5422 53.3476 40.5422 52.7755 41.1141L51.4648 42.4242V39.0582C51.4648 38.2492 50.8089 37.5934 50 37.5934C49.191 37.5934 48.5351 38.2492 48.5351 39.0582V44.3865L47.2244 43.0762C46.6523 42.5043 45.7248 42.5043 45.1529 43.0766C44.581 43.6486 44.581 44.5762 45.1533 45.148L48.5351 48.5289V50.2732L47.2244 48.9629C46.6523 48.391 45.7248 48.391 45.1529 48.9633C44.581 49.5354 44.581 50.4629 45.1533 51.0348L48.5351 54.4156V58.5018L41.6982 51.6672ZM54.1833 96.8561C54.1833 96.9742 54.0873 97.0703 53.9691 97.0703H46.0308C45.9126 97.0703 45.8166 96.9742 45.8166 96.8561V93.6467H54.1833V96.8561ZM59.6226 82.1123C59.6226 82.6928 59.1494 83.1648 58.5677 83.1648H55.8593C55.0503 83.1648 54.3945 83.8207 54.3945 84.6297C54.3945 85.4387 55.0503 86.0945 55.8593 86.0945H58.5675C59.1494 86.0945 59.6224 86.5666 59.6224 87.1471V89.6645C59.6224 90.2449 59.1492 90.717 58.5675 90.717H41.4324C40.8505 90.717 40.3773 90.2449 40.3773 89.6645V87.1471C40.3773 86.5668 40.8505 86.0945 41.4324 86.0945H50C50.8089 86.0945 51.4648 85.4387 51.4648 84.6297C51.4648 83.8207 50.8089 83.1648 50 83.1648H41.4324C40.8505 83.1648 40.3773 82.6928 40.3773 82.1123V79.5949C40.3773 79.0145 40.8505 78.5424 41.4324 78.5424H58.5675C59.1494 78.5424 59.6224 79.0145 59.6224 79.5949V82.1123H59.6226ZM20.8451 24.4586L14.7769 20.9551C14.0763 20.5504 13.1804 20.7906 12.7759 21.4912C12.3714 22.1918 12.6115 23.0877 13.3121 23.4922L19.3802 26.9957C20.0687 27.3941 20.9724 27.1676 21.3812 26.4596C21.7857 25.7588 21.5457 24.8629 20.8451 24.4586Z" fill="#97C45E"/>
</g>
<defs>
<clipPath id="clip0">
<rect width="100" height="100" fill="white"/>
</clipPath>
</defs>
</svg>
