<svg width="120" height="120" viewBox="0 0 120 120" fill="none" xmlns="http://www.w3.org/2000/svg">
<g clip-path="url(#clip0)">
<path d="M59.9999 11.0846C50.1651 11.0846 40.9518 14.9483 34.0542 21.9673L33.9508 22.073C33.2739 22.7658 33.2866 23.8761 33.9792 24.5532C34.6717 25.2301 35.7822 25.2174 36.4593 24.5248L36.5592 24.4226C42.7889 18.0833 51.1136 14.5923 59.9999 14.5923C78.1204 14.5923 92.8626 29.3342 92.8626 47.4549C92.8626 65.5756 78.1204 80.3176 59.9999 80.3176C41.8795 80.3176 27.1373 65.5754 27.1373 47.4549C27.1373 41.5351 28.7282 35.7326 31.7381 30.6748C32.2333 29.8423 31.9603 28.7661 31.1278 28.2708C30.295 27.7756 29.219 28.0489 28.7238 28.8812C25.3912 34.4813 23.6296 40.9041 23.6296 47.4551C23.6296 67.5097 39.9452 83.8255 59.9997 83.8255C80.0542 83.8255 96.3698 67.5097 96.3698 47.4551C96.3698 27.4006 80.0545 11.0846 59.9999 11.0846V11.0846Z" fill="#97C45E"/>
<path d="M104.422 40.1559C103.47 38.7391 102.572 37.4009 102.234 36.1378C101.874 34.7899 101.981 33.1294 102.096 31.3713C102.266 28.7489 102.442 26.037 101.102 23.7218C99.7418 21.3705 97.2844 20.1638 94.9078 18.9966C93.3452 18.2292 91.8691 17.5043 90.9098 16.545C89.9505 15.5855 89.2256 14.1096 88.458 12.5468C87.2911 10.1705 86.0843 7.71305 83.7328 6.35273C81.4177 5.01328 78.7059 5.1893 76.0833 5.35922C74.3252 5.47336 72.6649 5.58117 71.3166 5.2207C70.0535 4.88297 68.7152 3.98437 67.2984 3.03281C65.1823 1.61133 62.783 0 60 0C57.217 0 54.8177 1.61133 52.7009 3.03305C51.2841 3.98461 49.946 4.8832 48.683 5.2207C47.3351 5.58117 45.6745 5.47336 43.9165 5.35922C41.2938 5.1893 38.5823 5.01328 36.267 6.35273C33.9157 7.71305 32.7089 10.1705 31.5417 12.5468C30.7744 14.1096 30.0495 15.5857 29.0899 16.545C28.1306 17.5043 26.6548 18.2292 25.092 18.9966C22.7154 20.1635 20.2582 21.3705 18.8977 23.7218C17.558 26.037 17.734 28.7489 17.9041 31.3716C18.0183 33.1294 18.1259 34.7899 17.7656 36.1378C17.4279 37.4009 16.5293 38.7391 15.5777 40.1559C14.1562 42.2728 12.5449 44.6719 12.5449 47.4548C12.5449 50.2378 14.156 52.6371 15.5777 54.754C16.5291 56.1708 17.4279 57.5091 17.7654 58.7721C18.1256 60.12 18.018 61.7805 17.9039 63.5386C17.7337 66.161 17.5577 68.8727 18.8974 71.1881C20.2577 73.5394 22.7152 74.7464 25.0917 75.9134C26.6543 76.6807 28.1304 77.4056 29.0897 78.3649C29.9791 79.2544 30.6673 80.5894 31.3744 82.0242L18.6359 105.459C18.0893 106.465 18.105 107.657 18.678 108.647C19.2511 109.638 20.276 110.246 21.42 110.273L31.189 110.51L36.7003 118.579C37.3137 119.477 38.3084 120 39.3865 120C39.4427 120 39.4994 119.999 39.5562 119.996C40.699 119.938 41.7075 119.303 42.2541 118.297L55.6298 93.6902C56.9761 94.3948 58.4264 94.9099 59.9998 94.9099C61.5729 94.9099 63.0234 94.3948 64.3697 93.6902L77.7455 118.298C78.292 119.303 79.3005 119.938 80.4434 119.996C80.5003 119.999 80.5568 120 80.613 120C81.6912 120 82.6859 119.477 83.2992 118.579L88.8105 110.51L98.5793 110.273C99.7233 110.246 100.748 109.638 101.321 108.647C101.894 107.657 101.91 106.465 101.363 105.46L96.7052 96.8897C96.2426 96.0384 95.1778 95.7232 94.3268 96.1863C93.4758 96.649 93.161 97.7137 93.6234 98.5648L98.0871 106.777L88.5977 107.006C87.5519 107.032 86.5755 107.562 85.9859 108.426L80.6323 116.264L67.3554 91.8387C68.7511 90.9014 70.0706 90.022 71.3166 89.689C72.6644 89.3288 74.325 89.4363 76.083 89.5505C78.7059 89.7206 81.4174 89.8966 83.7326 88.557C84.9581 87.848 85.8713 86.8397 86.6313 85.7013L89.7647 91.466C90.2271 92.317 91.2914 92.6318 92.1431 92.1694C92.9941 91.7067 93.3089 90.642 92.8465 89.7909L88.6247 82.024C89.3318 80.5891 90.0199 79.2544 90.9094 78.3649C91.8687 77.4056 93.3445 76.6807 94.9073 75.9134C97.2839 74.7464 99.7411 73.5394 101.102 71.1881C102.441 68.873 102.265 66.161 102.095 63.5384C101.981 61.7805 101.873 60.12 102.234 58.7719C102.571 57.5088 103.47 56.1708 104.421 54.754C105.843 52.6371 107.454 50.2378 107.454 47.4548C107.455 44.6719 105.844 42.2726 104.422 40.1559V40.1559ZM39.3673 116.264L34.0139 108.426C33.424 107.563 32.4476 107.032 31.4018 107.006L21.9127 106.777L33.3682 85.7018C34.1283 86.8399 35.0414 87.8482 36.267 88.5572C38.5823 89.8966 41.2945 89.7209 43.9165 89.5507C45.6745 89.4366 47.3351 89.329 48.683 89.6892C49.9291 90.0223 51.2487 90.9019 52.6441 91.8389L39.3673 116.264ZM101.51 52.7984C100.44 54.3914 99.334 56.0386 98.8455 57.8662C98.3362 59.7712 98.468 61.8019 98.5955 63.7655C98.738 65.9625 98.8725 68.0377 98.066 69.4315C97.2391 70.8605 95.3557 71.7855 93.3616 72.765C91.6109 73.6247 89.8005 74.5137 88.4297 75.8848C87.0586 77.2556 86.1696 79.0662 85.3097 80.817C84.3305 82.811 83.4054 84.6942 81.9766 85.5211C80.5826 86.3276 78.5079 86.1928 76.3106 86.0505C74.3468 85.923 72.3164 85.7916 70.4114 86.3006C68.584 86.7893 66.9368 87.8953 65.3437 88.9652C63.4774 90.2187 61.7147 91.4025 60 91.4025C58.2855 91.4025 56.5228 90.2187 54.6565 88.9652C53.0634 87.8955 51.4165 86.7893 49.5886 86.3006C48.5428 86.021 47.4595 85.9348 46.3699 85.9348C45.4746 85.9348 44.5751 85.9931 43.6894 86.0508C41.4921 86.193 39.4172 86.328 38.0234 85.5213C36.5944 84.6945 35.6693 82.811 34.6901 80.817C33.8304 79.0662 32.9412 77.2559 31.5701 75.8848C30.1992 74.5139 28.3889 73.6247 26.6381 72.765C24.6441 71.7858 22.7606 70.8607 21.9337 69.4315C21.1273 68.0377 21.2618 65.9625 21.4043 63.7657C21.5318 61.8021 21.6635 59.7715 21.1542 57.8665C20.6658 56.0388 19.5595 54.3914 18.4896 52.7986C17.2364 50.9323 16.0526 49.1695 16.0526 47.4551C16.0526 45.7406 17.2364 43.9779 18.4896 42.1116C19.5595 40.5185 20.6655 38.8713 21.1542 37.0437C21.6635 35.1387 21.5318 33.108 21.4043 31.1445C21.2618 28.9474 21.1273 26.8723 21.9337 25.4784C22.7606 24.0495 24.6441 23.1244 26.6381 22.1449C28.3889 21.2852 30.1992 20.396 31.5701 19.0252C32.9409 17.6543 33.8302 15.8438 34.6901 14.093C35.6693 12.0991 36.5944 10.2157 38.0234 9.38883C39.4172 8.58258 41.4921 8.71711 43.6894 8.85937C45.653 8.98687 47.6834 9.11859 49.5886 8.6093C51.416 8.12063 53.0632 7.01461 54.6562 5.94469C56.5226 4.69125 58.2853 3.50742 60 3.50742C61.7145 3.50742 63.4772 4.69125 65.3435 5.94445C66.9366 7.01438 68.5837 8.12062 70.4114 8.60906C72.3164 9.11836 74.3473 8.98664 76.3109 8.85914C78.5079 8.71687 80.583 8.58211 81.9766 9.38859C83.4056 10.2155 84.3307 12.0989 85.3099 14.0927C86.1696 15.8435 87.0588 17.6538 88.4299 19.0249C89.8008 20.3958 91.6113 21.285 93.3619 22.1447C95.3559 23.1239 97.2391 24.049 98.066 25.478C98.8725 26.8718 98.738 28.947 98.5955 31.1438C98.468 33.1073 98.3362 35.138 98.8455 37.043C99.334 38.8706 100.44 40.518 101.51 42.1109C102.763 43.9772 103.947 45.7399 103.947 47.4544C103.947 49.1693 102.763 50.932 101.51 52.7984V52.7984Z" fill="#97C45E"/>
<path d="M84.0841 45.8117C85.2691 44.6564 85.6875 42.9612 85.1761 41.3874C84.6647 39.8136 83.3297 38.6879 81.6921 38.45L69.798 36.7217C69.5346 36.6835 69.307 36.518 69.1893 36.2794L63.8702 25.5017C63.1378 24.0176 61.6547 23.0958 60 23.0958C58.3453 23.0958 56.8621 24.0176 56.1297 25.5017L50.8106 36.2794C50.6929 36.518 50.4654 36.6835 50.2019 36.7217L38.3081 38.45C36.6705 38.6879 35.3353 39.8133 34.8239 41.3874C34.3125 42.9612 34.7308 44.6564 35.9161 45.8117L44.5225 54.2009C44.7133 54.3868 44.8 54.6542 44.755 54.9165L42.7232 66.7625C42.4434 68.3937 43.1015 70.0111 44.4403 70.9838C45.1968 71.5334 46.0818 71.8125 46.9729 71.8125C47.6587 71.8125 48.3482 71.6471 48.9855 71.3122L59.6236 65.7193C59.8593 65.5955 60.1406 65.5955 60.3759 65.7193L71.0142 71.3122C72.4788 72.0821 74.2204 71.9562 75.5594 70.9838C76.8984 70.0111 77.5563 68.3935 77.2765 66.7625L75.2447 54.9165C75.1997 54.6542 75.2866 54.3868 75.4769 54.2011L84.0841 45.8117ZM71.7879 55.5094L73.8197 67.3554C73.8963 67.8024 73.6202 68.0572 73.4981 68.146C73.3757 68.2348 73.0483 68.4183 72.6468 68.2074L62.0083 62.6145C60.7507 61.9533 59.2493 61.9536 57.9916 62.6145L47.3533 68.2076C46.9523 68.4186 46.6244 68.2348 46.5021 68.146C46.38 68.0572 46.1039 67.8024 46.1805 67.3554L48.2123 55.5097C48.4525 54.1095 47.9887 52.6815 46.9711 51.6893L38.3646 43.3001C38.0397 42.9835 38.1133 42.615 38.16 42.4716C38.2066 42.3279 38.3636 41.9867 38.8125 41.9215L50.7065 40.1932C52.1125 39.9889 53.3273 39.1065 53.9561 37.8324L59.2753 27.0547C59.4759 26.648 59.849 26.6042 60.0002 26.6042C60.1514 26.6042 60.5243 26.648 60.7251 27.0547L66.0443 37.8324C66.6731 39.1065 67.8879 39.9891 69.2939 40.1932L81.1879 41.9215C81.6368 41.9867 81.7936 42.3279 81.8404 42.4716C81.8871 42.6153 81.9607 42.9837 81.6361 43.3001L73.0291 51.6896C72.0115 52.6815 71.5476 54.1095 71.7879 55.5094V55.5094Z" fill="#97C45E"/>
</g>
<defs>
<clipPath id="clip0">
<rect width="120" height="120" fill="white"/>
</clipPath>
</defs>
</svg>
