<svg width="80" height="80" viewBox="0 0 80 80" fill="none" xmlns="http://www.w3.org/2000/svg">
<g clip-path="url(#clip0)">
<path d="M9.95469 42.5305C9.17195 33.7215 12.2542 25.0771 18.4109 18.8139C23.0093 14.1373 28.8655 11.1487 35.3464 10.1716C41.6101 9.22715 48.1338 10.3003 53.7157 13.194C54.0947 13.3905 54.1375 13.7736 53.8385 14.1039L51.1386 16.8085C49.3451 18.6055 50.5811 21.791 53.199 21.7901H53.2054L67.2869 21.7608C68.8991 21.7571 70.2101 20.4433 70.209 18.8319L70.1945 4.77178C70.2185 2.19061 66.9568 0.928073 65.2051 2.71822L61.8793 6.04948C61.6874 6.2418 61.3893 6.28055 61.17 6.14197C52.7984 0.854487 42.775 -1.11143 32.947 0.606853C32.3094 0.718249 31.8828 1.32538 31.9944 1.96282C32.1058 2.60042 32.7129 3.02694 33.3504 2.91539C42.605 1.29804 52.04 3.1474 59.9184 8.12319C61.0561 8.84235 62.5784 8.66674 63.5382 7.70526L66.8638 4.37401C67.3057 3.97748 67.8247 4.23074 67.8511 4.77319L67.8656 18.8339C67.8658 19.155 67.6038 19.4165 67.2819 19.4173L53.2006 19.4465H53.199C52.6372 19.4201 52.4067 18.8924 52.7972 18.4643L55.4971 15.7598C56.8693 14.4026 56.4992 11.9972 54.7943 11.1134C48.7766 7.99383 41.7458 6.83706 34.9971 7.85431C28.0101 8.90796 21.6969 12.1295 16.7398 17.1711C10.1008 23.925 6.7767 33.2439 7.62037 42.7383C7.68974 43.5184 7.41914 44.2769 6.87778 44.8189C6.14785 45.5498 5.13388 45.7766 4.16522 45.4266C3.21343 45.0823 2.59083 44.2767 2.49975 43.2717C1.49312 32.1683 5.39479 21.2921 13.2042 13.4313C17.4226 9.18403 22.4309 6.08869 28.0896 4.23089C28.7045 4.02904 29.0393 3.36707 28.8375 2.75212C28.6356 2.13734 27.974 1.80252 27.3587 2.00422C21.3449 3.97857 16.023 7.26749 11.5416 11.7796C3.2428 20.133 -0.903536 31.6884 0.165428 43.4829C0.338225 45.3888 1.56546 46.9781 3.36779 47.63C3.92493 47.8316 4.49722 47.9298 5.06248 47.9298C6.34252 47.9297 7.58662 47.4254 8.53607 46.4744C9.56847 45.4405 10.0856 44.003 9.95469 42.5305ZM38.1334 64.0509C38.2993 64.1323 38.4752 64.171 38.6486 64.171C39.0815 64.171 39.4979 63.9301 39.7015 63.5151C41.1803 60.5017 42.7704 56.338 43.5443 51.3156C46.4934 49.4266 51.174 45.5648 52.2714 39.5912C53.0873 35.1499 51.789 30.3026 48.6161 25.9414C45.3669 21.4756 40.3752 17.926 34.5606 15.9467C33.8711 15.7117 33.1263 15.8495 32.5687 16.3149C32.0114 16.7799 31.7427 17.487 31.8499 18.2066C32.3059 21.2662 31.6002 24.3759 30.2733 26.9246C29.913 27.6166 29.5407 28.3318 29.1709 29.2273C27.9193 32.2591 26.848 37.1785 27.9473 41.0641C28.8961 44.4175 31.6008 47.298 35.7689 49.3942C37.8735 50.4527 39.9158 51.0925 41.1526 51.4239C40.3977 55.9586 38.9486 59.7291 37.5973 62.4827C37.3125 63.0636 37.5523 63.7657 38.1334 64.0509ZM30.2024 40.4258C29.571 38.1946 29.6771 34.143 31.3373 30.1215C31.6672 29.3219 32.0155 28.6533 32.352 28.0067C33.9531 24.9309 34.6926 22.0647 34.2293 18.3129C39.4082 20.1627 43.8322 23.3493 46.7212 27.3199C49.5125 31.1565 50.6652 35.3641 49.9663 39.1674C49.5953 41.1873 48.3057 44.8406 43.9022 48.2094C44.1522 45.0009 43.9583 41.3808 43.416 38.1089C44.0186 37.5522 44.539 36.9215 44.9657 36.2253C46.0503 34.4559 46.2838 32.6833 46.2885 31.5079C46.2912 30.8608 45.7687 30.334 45.1215 30.3315H45.1166C44.4718 30.3315 43.9477 30.853 43.945 31.4985C43.9412 32.4277 43.6788 33.9621 42.8112 35.2437C42.0508 32.1894 40.9384 29.2188 39.4767 26.3629C39.1817 25.7867 38.4757 25.5589 37.8998 25.8538C37.3236 26.1486 37.0958 26.8546 37.3906 27.4306C39.2834 31.1286 40.5603 35.0284 41.2007 39.0569C40.9965 38.868 40.7903 38.6818 40.5797 38.5009C39.0772 37.2104 37.4065 36.1192 35.6144 35.2574C35.0316 34.9771 34.331 35.2227 34.0504 35.8058C33.7702 36.389 34.0156 37.0893 34.5988 37.3697C36.207 38.1426 37.7054 39.1214 39.0528 40.2787C39.9821 41.0767 40.8422 41.9646 41.6152 42.9202C41.7383 45.0817 41.6729 47.1407 41.4704 49.0808C38.5533 48.2622 31.7239 45.8036 30.2024 40.4258ZM78.7621 30.2118C78.3242 28.4926 77.0387 27.1855 75.3231 26.7152C73.5901 26.2404 71.7959 26.7166 70.5246 27.9898C69.3053 29.2108 68.8116 31.0062 69.2358 32.6748C70.8502 39.0266 70.3257 45.8611 67.7586 51.9195C67.5061 52.5152 67.7844 53.2031 68.3803 53.4554C68.9758 53.7081 69.6637 53.4298 69.9162 52.8338C72.6819 46.307 73.2468 38.9427 71.507 32.0976C71.2853 31.225 71.5442 30.2854 72.183 29.6456C72.8511 28.9766 73.7941 28.7258 74.7034 28.9755C75.5957 29.22 76.2639 29.8984 76.4911 30.7903C78.2779 37.8042 78.005 45.161 75.7021 52.0657C73.3428 59.1398 68.9799 65.2851 63.0851 69.8372C56.2857 75.0864 47.8092 77.8583 39.2245 77.6435C30.7601 77.4315 22.5495 74.3516 16.1041 68.971C15.0702 68.1086 13.5384 68.083 12.4621 68.9101L8.72995 71.7775C8.26203 72.1029 7.75567 71.8275 7.80426 71.2519L9.64018 57.3035C9.68237 56.9843 9.97687 56.7583 10.2962 56.8001L24.2496 58.6195C24.8266 58.7246 24.9496 59.2794 24.5201 59.6472L21.4885 61.9759C19.9496 63.1361 19.9777 65.5581 21.5742 66.675C27.1259 70.5592 33.9345 72.6282 40.7606 72.5067C47.8218 72.3787 54.5001 70.0116 60.0735 65.6613C62.887 63.4656 65.2971 60.8438 67.2366 57.8686C67.59 57.3265 67.4369 56.6006 66.8948 56.2471C66.3522 55.8933 65.6268 56.0466 65.2732 56.5889C63.4752 59.3468 61.2406 61.7776 58.6316 63.814C53.4616 67.8493 47.2674 70.045 40.718 70.1637C34.3878 70.2736 28.0666 68.3575 22.9168 64.7542C22.5735 64.5141 22.5727 64.1229 22.9158 63.8346L25.9479 61.5056C27.9926 59.9622 27.0261 56.5939 24.5529 56.2956L10.5992 54.4761C9.00134 54.2682 7.52819 55.3987 7.31696 56.9971L5.48088 70.9463C5.32683 72.1198 5.88881 73.26 6.91293 73.8514C7.94034 74.4443 9.2135 74.3607 10.1572 73.6365L13.8901 70.7687C14.1045 70.604 14.4044 70.6051 14.6029 70.7707C21.4521 76.4885 30.1753 79.7613 39.1661 79.9864C48.2724 80.2145 57.2964 77.2689 64.5176 71.6924C70.7821 66.8547 75.4184 60.3243 77.9256 52.8074C80.3709 45.4754 80.6601 37.662 78.7621 30.2118Z" fill="#97C45E"/>
</g>
<defs>
<clipPath id="clip0">
<rect width="80" height="80" fill="white"/>
</clipPath>
</defs>
</svg>
