<svg width="120" height="120" viewBox="0 0 120 120" fill="none" xmlns="http://www.w3.org/2000/svg">
<g clip-path="url(#clip0)">
<path d="M119.345 82.8267C117.813 79.5115 114.059 77.9254 110.613 79.1371L105.303 81.0046L99.6208 75.9915C92.3126 69.544 82.3185 67.3306 73.1561 69.7338V64.7898L83.6073 53.9817C84.194 53.3751 84.767 52.7211 85.3101 52.0383C85.9144 51.2786 85.7884 50.1731 85.0287 49.5688C84.269 48.9647 83.1637 49.0907 82.5592 49.8502C82.0861 50.4449 81.5886 51.0129 81.0804 51.5385L72.1879 60.7346L68.2775 48.3144C67.0808 44.5135 68.0305 40.3463 70.7559 37.4391L77.0714 30.7026C77.6546 30.0805 78.1577 29.3852 78.5663 28.6361L82.4994 21.4253C82.5109 21.4043 82.5379 21.3548 82.6178 21.3485C82.6984 21.3438 82.7321 21.3867 82.7466 21.4057C87.6725 27.7773 88.9217 36.0852 86.0876 43.6292C85.7462 44.5379 86.2062 45.5511 87.1146 45.8925C88.0233 46.2339 89.0365 45.7742 89.3779 44.8655C92.6437 36.1724 91.204 26.5987 85.5273 19.256C84.7681 18.274 83.5764 17.747 82.3389 17.8451C81.1017 17.9436 80.0081 18.6528 79.4136 19.7427L75.4806 26.9535C75.2144 27.4413 74.8868 27.894 74.507 28.2994L73.8811 28.967C73.8551 27.7996 73.7079 26.6561 73.4368 25.5419C73.2339 24.7075 72.6307 24.0331 71.8233 23.7376C71.0149 23.4419 70.1174 23.5682 69.4229 24.0753L63.4713 28.4201C58.3296 32.1739 55.3685 37.978 55.3477 44.3443C55.3268 50.7106 58.2495 56.534 63.3666 60.3215L69.6406 64.9653V70.8997C68.6199 71.314 67.616 71.789 66.6347 72.3272L51.2035 80.789H50.1312C47.7132 78.626 44.6246 77.4432 41.3545 77.4432H19.3915C18.5447 75.963 16.9529 74.961 15.129 74.961H1.75741C0.786851 74.961 0 75.7479 0 76.7184C0 77.689 0.786851 78.4758 1.75741 78.4758H15.1297C15.8994 78.4758 16.5258 79.1022 16.5258 79.8719V85.042C16.5258 86.0125 17.3126 86.7994 18.2832 86.7994C19.2537 86.7994 20.0406 86.0125 20.0406 85.042V80.958H41.3552C43.9374 80.958 46.3647 81.9635 48.1905 83.7893C48.52 84.119 48.9671 84.3041 49.4332 84.3041H71.1266C73.6325 84.3041 75.6711 86.3427 75.6711 88.8485C75.6711 91.3544 73.6325 93.393 71.1266 93.393H53.5352C52.7219 93.393 51.9573 93.7098 51.3827 94.2845L48.3576 97.3096C47.6713 97.996 47.6713 99.1088 48.3576 99.7949C48.7007 100.138 49.1506 100.31 49.6002 100.31C50.0499 100.31 50.4998 100.138 50.8428 99.7949L53.7299 96.9078H71.1264C73.1772 96.9078 75.0503 96.1366 76.4743 94.8706L111.779 82.4541C113.506 81.8468 115.387 82.6418 116.155 84.3029C116.949 86.0212 116.254 88.0488 114.574 88.9193L76.49 108.641C74.2605 109.796 71.7549 110.406 69.2443 110.406H66.1733C65.2028 110.406 64.4159 111.193 64.4159 112.164C64.4159 113.134 65.2028 113.921 66.1733 113.921H69.2443C72.3149 113.921 75.3793 113.174 78.1061 111.763L116.19 92.0407C119.545 90.302 120.93 86.2555 119.345 82.8267V82.8267ZM58.863 44.3553C58.8801 39.1194 61.3154 34.3458 65.5444 31.2584L70.2803 27.801C70.49 29.5465 70.3318 31.3903 69.8168 33.3019L68.192 35.0352C64.5996 38.8671 63.3479 44.3598 64.9253 49.3698L68.099 59.4501L65.4584 57.4956C61.2498 54.3808 58.8458 49.5912 58.863 44.3553ZM71.1266 80.7883H58.5143L68.3253 75.4085C77.6654 70.2868 89.3079 71.5804 97.2957 78.6274L101.505 82.3407L79.0643 90.2329C79.1428 89.7825 79.1859 89.32 79.1859 88.8476C79.1859 84.4037 75.5705 80.7883 71.1266 80.7883V80.7883Z" fill="#97C45E"/>
<path d="M58.6842 110.405H36.4658C32.6939 110.405 29.0427 109.049 26.1845 106.588L25.1504 105.698C24.8315 105.423 24.4245 105.272 24.0037 105.272H20.0406V92.5356C20.0406 91.565 19.2537 90.7782 18.2832 90.7782C17.3126 90.7782 16.5258 91.565 16.5258 92.5356V106.586C16.5258 107.355 15.8994 107.982 15.1297 107.982H1.75741C0.786851 107.982 0 108.768 0 109.739C0 110.71 0.786851 111.496 1.75741 111.496H15.1297C17.0457 111.496 18.7045 110.391 19.5134 108.787H23.3511L23.8907 109.251C27.3866 112.262 31.8525 113.92 36.4656 113.92H58.6839C59.6545 113.92 60.4413 113.133 60.4413 112.162C60.4413 111.192 59.6547 110.405 58.6842 110.405Z" fill="#97C45E"/>
<path d="M47.0419 70.64C47.3758 70.9338 47.7901 71.0784 48.2025 71.0784C48.6899 71.0784 49.1749 70.8769 49.5222 70.4823C50.1635 69.7538 50.093 68.6433 49.3645 68.002C42.1657 61.664 38.0369 52.5346 38.0369 42.9546C38.0369 33.3747 42.1657 24.2453 49.3645 17.9073C50.093 17.266 50.1635 16.1553 49.5222 15.427C48.8806 14.6985 47.7704 14.628 47.0419 15.2693C39.0855 22.2744 34.5221 32.3654 34.5221 42.9549C34.5221 53.5443 39.0855 63.6349 47.0419 70.64Z" fill="#97C45E"/>
<path d="M93.6043 67.8489C92.8803 68.4952 92.8172 69.6064 93.4635 70.3304C93.8108 70.7194 94.2918 70.9174 94.7752 70.9174C95.1916 70.9174 95.6099 70.7702 95.945 70.471C103.781 63.4765 108.275 53.4471 108.275 42.9542C108.275 32.4615 103.781 22.4318 95.945 15.4373C95.2209 14.7911 94.1098 14.8539 93.4635 15.5782C92.8172 16.3022 92.8803 17.4134 93.6043 18.0596C100.694 24.388 104.76 33.4618 104.76 42.9544C104.76 52.447 100.694 61.5209 93.6043 67.8489V67.8489Z" fill="#97C45E"/>
<path d="M66.2485 9.9886C70.1045 9.39131 74.1121 9.47473 77.9413 10.2358C78.0571 10.2588 78.1722 10.27 78.2858 10.27C79.1071 10.27 79.8415 9.69124 80.0076 8.85495C80.1969 7.9029 79.5785 6.9778 78.6265 6.7887C74.3958 5.94772 69.9704 5.8554 65.7102 6.51525C64.7512 6.66381 64.0941 7.56173 64.2425 8.52104C64.3908 9.48036 65.2882 10.1369 66.2485 9.9886Z" fill="#97C45E"/>
</g>
<defs>
<clipPath id="clip0">
<rect width="120" height="120" fill="white"/>
</clipPath>
</defs>
</svg>
