<svg width="130" height="130" viewBox="0 0 130 130" fill="none" xmlns="http://www.w3.org/2000/svg">
<path d="M90.6545 79.6732C116.518 61.1102 114.592 22.089 87.2505 6.03143C87.1672 5.97292 87.077 5.92134 86.9818 5.87671C70.7397 -3.5079 49.9154 -1.61452 35.5638 11.2891C34.7812 11.9923 34.7167 13.1964 35.4199 13.9779C36.1231 14.7605 37.3272 14.8239 38.1098 14.1207C47.4636 5.71108 60.2155 2.17722 72.5012 4.51097C72.3256 6.58586 70.8805 8.83234 69.3016 10.334C66.2001 13.2836 53.357 10.7386 48.6925 20.9375C48.0409 22.3598 47.1423 24.886 46.3349 26.1515C45.9253 24.7233 45.5911 22.4798 43.7909 20.9574C42.7108 20.0439 41.5553 19.6402 40.3562 19.7563C38.2 19.9675 36.7043 21.8411 35.8097 22.9598C33.9203 25.3263 34.7614 27.4508 35.3743 29.003C35.9426 30.4382 36.4326 31.677 35.5201 33.7409C34.6453 35.7216 36.4623 37.8838 37.0594 38.5939C39.5072 41.5059 45.6496 46.3341 49.3927 45.4067C58.5284 43.1355 61.1151 58.0247 67.1969 59.5759C71.7514 60.7373 76.1322 63.3716 75.5798 65.7708C73.8778 73.1579 66.8686 72.4359 62.4739 74.3838C60.0538 75.4569 55.6709 78.5028 52.7292 82.2291C50.4064 81.4882 48.1748 80.547 46.0552 79.4183C46.3429 78.7478 46.6593 78.0466 47.0094 77.3097C50.1921 70.6288 49.9819 67.1504 42.4529 60.9357C38.8447 57.9572 40.0904 53.9295 41.7716 51.076C42.8427 49.258 42.3131 46.8984 40.5655 45.7053C37.8499 43.8476 29.8975 39.0869 26.1871 33.608C27.5538 28.4674 29.8757 23.7364 33.105 19.5291C33.7457 18.694 33.588 17.4989 32.7539 16.8582C31.9188 16.2174 30.7237 16.3751 30.0839 17.2093C19.4427 31.0739 17.5235 51.0155 27.7105 67.3002C41.1338 88.7583 69.6447 94.3809 90.224 79.9767C90.4194 79.8765 90.5364 79.7833 90.6545 79.6732ZM90.102 75.3161C89.7767 72.3754 92.4417 67.9637 94.8469 63.9836C97.9999 58.7666 100.977 53.8392 98.6099 50.3172C96.3654 46.9798 93.0527 48.3267 89.1757 45.127C86.9034 43.2515 84.7888 40.8771 86.0336 34.3817C86.3857 32.5408 88.1561 30.2487 91.0175 27.9279C92.8821 26.4153 93.5794 23.8584 92.7512 21.5663C92.4209 20.6519 92.407 20.0607 92.4963 19.8316C93.863 16.3236 88.0747 14.4351 87.5729 10.7168C110.021 25.9432 111.121 58.5166 90.102 75.3161ZM25.2022 38.4868C29.5444 43.2932 35.5062 46.8588 38.4172 48.8503C38.5174 48.9178 38.5481 49.0437 38.4906 49.1429C35.1006 54.8985 35.661 60.2682 40.0289 63.8735C47.2544 69.8373 45.5395 71.1197 42.7574 77.4515C30.3835 69.2382 22.9994 54.2578 25.2022 38.4868ZM56.8274 83.3062C59.1899 80.783 62.2457 78.6516 64.0181 77.8661C67.6472 76.2583 77.0259 76.4646 79.2922 66.6248C80.4794 61.4723 74.5463 57.5179 68.1391 55.8843C64.6469 54.9937 60.3771 38.7556 48.4763 41.7092C48.2363 41.7658 47.059 41.6249 44.8551 40.2542C41.7835 38.343 39.5519 35.8823 39.1452 34.949C40.4981 31.6016 39.5509 29.2043 38.9171 27.6016C38.3349 26.1287 38.323 25.9175 38.7862 25.3372C39.1294 24.9078 40.1727 23.6015 40.7272 23.547C40.8551 23.5321 41.0813 23.6531 41.3312 23.8654C42.9022 25.1944 42.1008 29.732 45.5692 30.3916C49.2787 31.0958 50.7545 25.5872 52.1559 22.5215C55.9516 14.2229 67.312 17.483 71.9269 13.0932C74.3241 10.813 75.8377 8.04384 76.2264 5.40163C78.9113 6.18021 81.4801 7.22261 83.9041 8.50999C82.7397 14.0563 87.5511 17.241 88.8047 18.8825C88.4992 20.0092 88.6212 21.3452 89.1687 22.8597C89.4464 23.6293 89.2253 24.4773 88.6183 24.9693C86.101 27.0104 82.9609 30.1763 82.2924 33.6646C80.7303 41.8213 83.6701 45.5208 86.7507 48.0648C93.9116 53.9751 100.043 48.0202 91.5868 62.0128C88.4149 67.2615 84.8731 73.1252 86.7874 77.6994C78.2071 83.2417 67.5421 85.5358 56.8274 83.3062Z" fill="#97C45E"/>
<path d="M31.2295 110.322C31.6014 110.838 32.1836 111.112 32.7747 111.112C34.2982 111.112 35.2384 109.368 34.317 108.093C31.8166 104.628 20.741 98.84 14.8287 93.009C12.5356 90.7467 8.51677 82.9341 7.46246 79.6413L4.86091 70.2755C4.56138 69.1964 6.13441 68.5051 6.68388 69.7131C9.71588 76.1778 9.97574 77.496 11.4962 79.4548C14.9914 83.9587 19.529 87.6721 24.6309 90.2171L32.741 98.3718C33.1129 98.7467 33.6019 98.9332 34.0909 98.9332C35.773 98.9332 36.6369 96.8881 35.4417 95.686L27.2572 87.4558L24.0308 82.4432C23.4873 81.3244 24.9324 80.2324 25.8875 81.2193C36.9592 92.8593 36.4296 92.5082 37.0009 92.7859L48.8839 98.5583C55.3704 101.709 54.9062 108.58 55.061 109.069C55.1572 110.116 56.0815 110.885 57.1319 110.79C58.1802 110.694 58.9509 109.767 58.8547 108.72L58.6871 106.897C58.2229 101.853 55.1036 97.3443 50.5482 95.1315L38.9776 89.5109L28.6398 78.586C26.9984 76.889 24.3859 76.5468 22.4271 77.7727C20.6596 78.8786 19.8245 80.9386 20.1994 82.8885C18.0829 81.1964 16.1637 79.2555 14.5044 77.1191C13.4114 75.7107 13.3777 75.07 10.1513 68.1361C9.20212 66.0474 6.92688 64.8859 4.7409 65.3729C2.08382 65.966 0.461196 68.6707 1.19018 71.2941C4.69528 83.9101 3.58246 80.0013 3.82149 80.761C5.02258 84.5468 9.32312 92.9297 12.1538 95.7197C15.3782 98.9005 19.9049 101.991 23.8979 104.718C25.5543 105.848 30.2555 108.974 31.2295 110.322Z" fill="#97C45E"/>
<path d="M125.741 65.5078C123.416 64.7272 120.899 65.8212 119.885 68.0498C116.626 75.057 116.591 75.7067 115.494 77.119C113.834 79.2564 111.915 81.1974 109.799 82.8895C110.174 80.9395 109.337 78.8785 107.571 77.7736C105.613 76.5478 103 76.8889 101.344 78.6008L91.0205 89.5109L79.4509 95.1315C70.8181 99.3249 71.311 108.266 71.1364 108.799C71.0402 109.847 71.8109 110.774 72.8582 110.87C73.9036 110.967 74.833 110.195 74.9292 109.148C75.0829 108.661 74.6157 101.714 81.1151 98.5582C93.5506 92.4704 93.0993 92.8563 93.5486 92.3822L104.097 81.2341C105.077 80.2215 106.508 81.3303 105.966 82.4431L102.741 87.4558L94.5563 95.6859C93.3602 96.888 94.226 98.9332 95.9072 98.9332C97.3532 98.9332 97.4128 97.9453 105.367 90.216C112.77 86.5245 118.445 80.4248 120.054 76.886L123.354 69.6258C123.829 68.5795 125.462 69.1061 125.113 70.3638L122.536 79.6403C121.481 82.9341 117.462 90.7467 115.17 93.008C109.273 98.825 98.2171 104.604 95.6979 108.069C94.7755 109.334 95.6989 111.095 97.2362 111.095C97.8244 111.095 98.4046 110.823 98.7775 110.31C100.694 107.679 111.79 101.692 117.844 95.7206C120.674 92.9297 124.975 84.5468 126.177 80.761C126.417 79.9993 125.433 83.4409 128.783 71.3833C129.474 68.8939 128.138 66.3132 125.741 65.5078Z" fill="#97C45E"/>
<path d="M58.2705 114.696H34.9468C32.5119 114.696 30.5312 116.677 30.5312 119.112V125.585C30.5312 128.019 32.5119 130 34.9468 130H58.2705C60.7044 130 62.6851 128.019 62.6851 125.585V119.112C62.6851 116.677 60.7044 114.696 58.2705 114.696ZM58.8765 125.585C58.8765 125.92 58.6048 126.191 58.2705 126.191H34.9468C34.6126 126.191 34.3408 125.92 34.3408 125.585V119.112C34.3408 118.778 34.6126 118.506 34.9468 118.506H58.2705C58.6048 118.506 58.8765 118.778 58.8765 119.112V125.585Z" fill="#97C45E"/>
<path d="M95.0522 114.696H71.7275C69.2936 114.696 67.3129 116.677 67.3129 119.112V125.585C67.3129 128.019 69.2936 130 71.7275 130H95.0522C97.4861 130 99.4668 128.019 99.4668 125.585V119.112C99.4668 116.677 97.4861 114.696 95.0522 114.696ZM95.6572 125.585C95.6572 125.92 95.3864 126.191 95.0522 126.191H71.7275C71.3943 126.191 71.1225 125.92 71.1225 125.585V119.112C71.1225 118.778 71.3943 118.506 71.7275 118.506H95.0522C95.3864 118.506 95.6572 118.778 95.6572 119.112V125.585Z" fill="#97C45E"/>
</svg>
