<svg width="80" height="80" viewBox="0 0 80 80" fill="none" xmlns="http://www.w3.org/2000/svg">
<g clip-path="url(#clip0)">
<path d="M74.595 32.5548C74.397 31.9386 73.7367 31.5989 73.1209 31.7973C72.5047 31.9953 72.1656 32.6552 72.3634 33.2714C73.4389 36.6208 73.9842 40.12 73.9842 43.6719C73.9842 58.8175 64.0253 71.6808 50.3119 76.0572C50.5616 75.1966 50.7228 74.3064 50.8664 73.513C50.9067 73.29 50.9456 73.0756 50.9842 72.8758C51.1927 72.7755 51.5317 72.6266 51.9061 72.462C52.25 72.3109 52.6731 72.1252 53.2081 71.8853C53.7322 71.653 53.7956 71.5467 54.8555 69.7723C55.1319 69.3097 55.4903 68.7097 55.9598 67.9294C55.9605 67.9284 55.9678 67.9164 55.9684 67.9153C56.2487 67.4553 56.247 67.4108 56.1572 65.0792C56.1342 64.4784 56.1041 63.6989 56.0677 62.6839C56.0348 61.7548 55.6714 61.4983 53.925 60.2653C53.5064 59.9697 52.9805 59.5983 52.3181 59.1244L52.3044 59.1145C51.692 58.6747 51.427 58.7186 49.3641 59.0598C48.9845 59.1227 48.5269 59.1984 47.9739 59.2883C47.7445 58.8383 47.3645 58.1003 46.6448 57.0353C46.2189 56.4038 45.2289 55.5247 41.6831 54.7323L50.3836 46.7492C50.6989 46.4594 50.8614 46.048 50.8294 45.6202C50.7975 45.1931 50.5758 44.8106 50.2217 44.5716L44.4778 40.6873L48.8844 27.0678C49.0789 26.4667 48.8438 25.8088 48.3128 25.468C47.7836 25.1283 47.0908 25.1881 46.6277 25.6131C46.6275 25.6133 46.6275 25.6133 46.6275 25.6133L41.2547 30.5431C41.2555 30.3909 41.2553 30.2412 41.255 30.0948C41.2545 29.6652 41.2539 29.2592 41.2823 29.0367C41.4528 27.7092 42.5541 27.0591 44.0914 26.2853C45.0553 25.8002 45.8878 25.3812 46.2669 24.5809C46.6775 23.7131 46.7097 22.1406 46.7097 21.6792C46.7098 21.1762 46.6797 20.3777 46.5294 19.5314H55.0533C54.9659 20.292 54.6533 23.3534 55.0992 24.7692C55.5238 26.1177 55.8397 27.3686 56.0017 29.0891C56.1027 30.1659 56.8483 31.3067 57.9012 31.9956C58.4842 32.3767 59.0928 32.572 59.6723 32.572C59.9348 32.572 60.1916 32.5319 60.4372 32.4509C60.8922 32.3014 64.958 30.8908 67.5248 27.4202C67.8313 27.0058 68.298 26.3742 68.7878 25.6011C69.4344 26.6297 70.0266 27.6945 70.5625 28.7931C70.7655 29.2095 71.1825 29.4516 71.6166 29.4516C71.7889 29.4516 71.9641 29.4133 72.1294 29.3325C72.7111 29.0489 72.9527 28.3472 72.6687 27.7656C71.2081 24.7714 69.3567 22.0114 67.1478 19.5314H72.9688C73.4077 19.5314 73.8097 19.2862 74.0106 18.8961C74.2114 18.5061 74.1775 18.0363 73.9227 17.6791L61.6623 0.491562C61.4425 0.182969 61.0872 0 60.7084 0H30.0302C29.383 0 28.8583 0.524531 28.8583 1.17188C28.8583 1.81922 29.383 2.34375 30.0302 2.34375H32.5633L31.7114 4.81469H18.1325L19.8952 2.34375H25.0156C25.6628 2.34375 26.1875 1.81922 26.1875 1.17188C26.1875 0.524531 25.6628 0 25.0156 0H19.2916C18.9128 0 18.5575 0.182969 18.3375 0.491406L6.07719 17.6789C5.82234 18.0361 5.78844 18.5059 5.98938 18.8959C6.19031 19.2861 6.59234 19.5312 7.03125 19.5312H12.8511C10.282 22.4133 8.20531 25.6616 6.66109 29.2189C4.67766 33.7881 3.67188 38.6508 3.67188 43.6719C3.67188 51.7247 6.2525 59.3528 11.1347 65.7317C11.3655 66.0331 11.7137 66.1912 12.0661 66.1912C12.3145 66.1912 12.565 66.1127 12.7775 65.95C13.2914 65.5566 13.3892 64.8209 12.9958 64.307C8.42937 58.3408 6.01562 51.2053 6.01562 43.6719C6.01562 37.2242 7.78578 31.0758 11.1005 25.757C11.1339 25.8594 11.1605 25.9498 11.1767 26.022L10.1303 29.0006L10.1312 29.0009C10.027 29.3545 9.07422 33.1247 9.19109 34.3775C9.31031 35.6369 10.698 38.8795 11.6252 40.0653C11.8372 40.3364 12.1852 40.5881 13.0217 41.1814C14.132 41.9689 16.1988 43.4347 16.7011 44.3941C17.1698 45.2883 17.5744 46.3303 17.9656 47.338C18.2991 48.197 18.6142 49.0084 18.9417 49.6459C20.0023 51.713 22.3444 52.3516 23.8941 52.7742C24.352 52.8992 24.9778 53.0698 25.1472 53.1862C26.5309 54.4055 27.8681 55.0361 29.0536 55.0361C29.2519 55.0361 29.4461 55.0184 29.6355 54.9828C30.3017 54.858 31.2298 54.45 31.8677 53.2159C33.0044 51.0163 31.1494 47.8617 28.978 44.5505C28.6278 44.0164 28.2308 43.4111 28.1433 43.2078C28.0616 43.0183 28.0528 42.7844 28.0997 42.7097C28.1209 42.6761 28.2634 42.5805 28.6341 42.5536C28.7481 42.5659 28.9528 42.5873 29.2148 42.6123C29.3008 42.9317 29.4977 43.2103 29.7778 43.3998L35.5219 47.2842L31.3725 60.1091C31.352 60.1375 31.3319 60.1658 31.3123 60.1934C30.9008 60.7692 30.9261 61.0234 31.1227 63.0028C31.1734 63.5148 31.2389 64.1734 31.318 65.0117C31.3395 65.3853 31.3395 65.3853 32.2469 67.0294C32.498 67.4844 32.8302 68.0864 33.2691 68.8847C33.6714 69.6194 34.5089 69.8766 35.3955 70.1486C35.668 70.2322 36.0902 70.3617 36.3162 70.4705L37.4448 77.5619C29.4438 76.9694 21.9767 73.6006 16.1958 67.9262C15.7338 67.4728 14.9917 67.4798 14.5386 67.9417C14.0853 68.4036 14.0922 69.1456 14.5541 69.5989C21.3872 76.3061 30.4241 80 40 80C49.7033 80 58.8259 76.2211 65.6875 69.3594C72.5492 62.4978 76.3281 53.375 76.3281 43.6719C76.3281 39.8764 75.7452 36.1361 74.595 32.5548ZM29.9248 17.1875L31.3894 12.9397H48.6108L50.0752 17.1875H29.9248ZM38.1255 19.5312C37.783 19.985 37.4209 20.4855 37.0364 21.0364C36.2072 22.2228 35.4662 22.135 34.1194 21.8612C34.0145 21.8398 33.9111 21.8189 33.8092 21.7994C32.9686 21.6375 32.2266 21.4944 32.0014 19.5312H38.1255ZM65.9916 10.5959H50.2819L49.0967 7.15844H63.5395L65.9916 10.5959ZM47.8027 10.5959H32.1973L33.3825 7.15844H46.6177L47.8027 10.5959ZM67.3317 23.4689C66.7845 24.4553 66.1789 25.2984 65.6406 26.0267C63.9064 28.3716 61.0945 29.7683 59.7045 30.2247C59.6631 30.2386 59.4653 30.2175 59.1847 30.0341C58.6913 29.7114 58.3655 29.1889 58.3355 28.8698C58.1434 26.83 57.7411 25.3552 57.335 24.0652C57.112 23.357 57.223 21.2094 57.3772 19.8431C57.4045 19.7416 57.4239 19.6377 57.4352 19.5312H63.9194C65.1611 20.7612 66.3005 22.0763 67.3317 23.4689ZM52.5544 17.1875L51.0898 12.9397H67.6633L70.6934 17.1875H52.5544ZM61.8677 4.81469H48.2887L47.4367 2.34375H60.1048L61.8677 4.81469ZM35.0423 2.34375H44.9575L45.8094 4.81469H34.1903L35.0423 2.34375ZM30.9033 7.15844L29.7181 10.5959H14.0086L16.4606 7.15844H30.9033ZM12.3367 12.9397H28.9102L27.4458 17.1875H9.30672L12.3367 12.9397ZM12.3489 29.7569C12.3419 29.7786 12.3359 29.793 12.3333 29.8005C12.3362 29.7927 12.3389 29.785 12.3417 29.7773L12.3489 29.7569ZM28.617 40.2073C27.1634 40.2675 26.4542 40.9231 26.1153 41.4625C25.5569 42.3509 25.685 43.4259 25.9909 44.1353C26.1591 44.5256 26.5194 45.0752 27.0181 45.8356C27.6916 46.8623 28.6136 48.2686 29.2234 49.5733C30.0556 51.3538 29.8641 51.988 29.7856 52.14C29.5395 52.6163 29.2956 52.6619 29.2038 52.6791C28.7691 52.76 27.8809 52.4728 26.6894 51.4209C26.1742 50.9667 25.4402 50.7666 24.5109 50.513C23.2212 50.1611 21.6161 49.7233 21.0269 48.5752C20.7548 48.0459 20.4614 47.2898 20.1506 46.4895C19.7553 45.4709 19.3072 44.3169 18.7773 43.3061C18.0722 41.96 16.2939 40.6286 14.3777 39.2697C14.0206 39.0164 13.5808 38.7045 13.4419 38.5827C12.757 37.6694 11.595 34.8997 11.5248 34.1581C11.468 33.5494 12.1273 30.5698 12.3534 29.7442L13.4514 26.6186C13.6922 25.9312 13.4266 25.1616 12.7155 23.4394C12.7116 23.4298 12.7077 23.4203 12.7038 23.4108C13.7211 22.048 14.8483 20.7512 16.0808 19.5311H29.6478C29.9069 22.3019 31.0294 23.6505 33.3659 24.1005C33.46 24.1186 33.5556 24.1381 33.6525 24.1578C34.1278 24.2544 34.7175 24.3744 35.3592 24.3744C36.5128 24.3744 37.8339 23.9866 38.9581 22.3783C39.7845 21.1944 40.5155 20.2384 41.1352 19.5311H44.1388C44.5158 21.0792 44.3434 23.0727 44.163 23.5445C44.0063 23.7044 43.4492 23.9847 43.0383 24.1917C41.5498 24.9408 39.3003 26.073 38.9581 28.7394C38.9106 29.1122 38.9113 29.5689 38.9119 30.0977C38.9127 30.7564 38.915 32.5063 38.5812 32.8305C38.285 33.1188 38.0194 33.4184 37.7902 33.7223L30.5425 40.3725C29.6239 40.3056 28.8061 40.2145 28.7964 40.2134C28.7367 40.2069 28.6769 40.2045 28.617 40.2073ZM37.9722 47.3247C38.1613 46.7384 37.9375 46.0884 37.4281 45.7439L32.0895 42.1339L39.4391 35.3902C39.4506 35.38 39.4619 35.3695 39.4731 35.3589L45.5397 29.7923L42.028 40.6456C41.8378 41.2322 42.0616 41.8828 42.5716 42.2277L47.9102 45.8378L38.4027 54.5614C38.3852 54.5766 38.368 54.5922 38.3514 54.6084L34.4598 58.1791L37.9722 47.3247ZM39.833 77.6558L38.5903 69.8472C38.3964 68.618 37.1138 68.2244 36.0833 67.9081C35.8158 67.8261 35.4294 67.7075 35.2475 67.6186C34.8447 66.8859 34.5358 66.3262 34.2989 65.8969C33.9564 65.2762 33.7375 64.8797 33.6425 64.698C33.5662 63.8928 33.5039 63.2644 33.4548 62.7711C33.4391 62.6125 33.4242 62.4627 33.4105 62.3231L39.5412 56.698C44.0586 57.4897 44.6956 58.3372 44.7023 58.3467C45.3592 59.3188 45.6859 59.96 45.9022 60.3844C46.2041 60.9767 46.6594 61.8716 47.8536 61.682C48.6392 61.5555 49.2577 61.4533 49.747 61.3723C50.3683 61.2695 50.8598 61.1881 51.1267 61.1536C51.7134 61.5728 52.1886 61.9081 52.5736 62.18C53.0798 62.5373 53.5064 62.8384 53.7347 63.0148C53.7673 63.9134 53.7944 64.6169 53.8158 65.1695C53.8484 66.0159 53.8706 66.5916 53.8716 66.855C53.4395 67.5733 53.1052 68.1331 52.8439 68.5705C52.4852 69.1709 52.2228 69.61 52.0884 69.8187C51.6405 70.0191 51.2703 70.1817 50.9641 70.3162C49.4497 70.9816 48.9395 71.2056 48.7408 72.1459C48.6798 72.4366 48.622 72.7566 48.5606 73.0955C48.3459 74.2819 48.0575 75.8737 47.4784 76.8273C45.0713 77.3698 42.5684 77.6562 40 77.6562C39.9444 77.6562 39.8886 77.6561 39.833 77.6558Z" fill="#97C45E"/>
</g>
<defs>
<clipPath id="clip0">
<rect width="80" height="80" fill="white"/>
</clipPath>
</defs>
</svg>
