<svg id="Layer_1" enable-background="new 0 0 512 512" height="512" viewBox="0 0 512 512" width="512" xmlns="http://www.w3.org/2000/svg"><g><path d="m477.408 208.351c-1.267-3.944-5.493-6.118-9.434-4.848-3.944 1.267-6.114 5.49-4.848 9.434 6.883 21.436 10.373 43.831 10.373 66.563 0 96.932-63.737 179.257-151.503 207.266 1.598-5.508 2.63-11.205 3.549-16.283.258-1.427.507-2.799.754-4.078 1.334-.642 3.504-1.595 5.9-2.648 2.201-.967 4.909-2.156 8.333-3.691 3.354-1.487 3.76-2.167 10.543-13.523 1.769-2.961 4.063-6.801 7.068-11.795.004-.006.051-.083.055-.09 1.794-2.944 1.783-3.229 1.208-18.151-.147-3.845-.34-8.834-.573-15.33-.21-5.946-2.536-7.588-13.713-15.479-2.679-1.892-6.045-4.269-10.284-7.302l-.088-.063c-3.919-2.815-5.615-2.534-18.818-.35-2.429.402-5.358.887-8.897 1.462-1.468-2.88-3.9-7.603-8.506-14.419-2.726-4.042-9.062-9.668-31.755-14.739l55.683-51.092c2.018-1.855 3.058-4.488 2.853-7.226-.204-2.733-1.623-5.181-3.889-6.711l-36.761-24.859 28.202-87.165c1.245-3.847-.26-8.058-3.658-10.239-3.387-2.174-7.821-1.791-10.785.929-.001.001-.001.001-.001.001l-34.386 31.551c.005-.974.004-1.932.002-2.869-.003-2.75-.007-5.348.175-6.772 1.091-8.496 8.139-12.657 17.978-17.609 6.169-3.105 11.497-5.786 13.923-10.908 2.628-5.554 2.834-15.618 2.834-18.571.001-3.219-.192-8.33-1.154-13.746h54.553c-.559 4.868-2.56 24.461.294 33.522 2.717 8.63 4.739 16.636 5.776 27.647.646 6.892 5.418 14.193 12.157 18.602 3.731 2.439 7.626 3.689 11.335 3.689 1.68 0 3.323-.257 4.895-.775 2.912-.957 28.933-9.985 45.361-32.197 1.961-2.652 4.948-6.694 8.083-11.642 4.138 6.583 7.928 13.398 11.358 20.429 1.299 2.665 3.968 4.214 6.746 4.214 1.103 0 2.224-.245 3.282-.762 3.723-1.815 5.269-6.306 3.452-10.028-9.348-19.163-21.197-36.827-35.334-52.699h37.254c2.809 0 5.382-1.569 6.668-4.066 1.285-2.496 1.068-5.503-.563-7.789l-78.466-110c-1.407-1.975-3.681-3.146-6.105-3.146h-196.341c-4.142 0-7.5 3.357-7.5 7.5s3.358 7.5 7.5 7.5h16.212l-5.452 15.814h-86.905l11.281-15.814h32.771c4.142 0 7.5-3.357 7.5-7.5s-3.358-7.5-7.5-7.5h-36.634c-2.424 0-4.698 1.171-6.106 3.145l-78.466 110c-1.631 2.286-1.848 5.293-.562 7.789 1.286 2.497 3.859 4.066 6.668 4.066h37.247c-16.442 18.445-29.733 39.234-39.616 62.001-12.694 29.243-19.131 60.364-19.131 92.499 0 51.538 16.516 100.358 47.762 141.183 1.477 1.929 3.706 2.941 5.961 2.941 1.59 0 3.193-.503 4.553-1.544 3.289-2.518 3.915-7.226 1.397-10.515-29.225-38.184-44.673-83.851-44.673-132.065 0-41.265 11.329-80.615 32.543-114.655.214.655.384 1.234.488 1.696l-6.697 19.063.006.002c-.667 2.263-6.765 26.392-6.017 34.41.763 8.06 9.644 28.813 15.578 36.402 1.357 1.735 3.584 3.346 8.938 7.143 7.106 5.04 20.333 14.421 23.548 20.561 3 5.723 5.589 12.392 8.093 18.841 2.134 5.498 4.151 10.691 6.247 14.771 6.788 13.229 21.777 17.316 31.695 20.021 2.931.8 6.936 1.892 8.02 2.637 8.856 7.803 17.414 11.839 25.001 11.839 1.269 0 2.512-.113 3.724-.341 4.264-.799 10.204-3.41 14.286-11.308 7.275-14.078-4.597-34.267-18.494-55.459-2.241-3.418-4.782-7.292-5.342-8.593-.523-1.213-.579-2.71-.279-3.188.136-.215 1.048-.827 3.42-.999.73.079 2.04.216 3.717.376.55 2.044 1.81 3.827 3.603 5.04l36.762 24.86-26.556 82.079c-.131.182-.26.363-.385.54-2.634 3.685-2.472 5.312-1.214 17.98.325 3.277.744 7.492 1.25 12.857.138 2.391.138 2.391 5.945 12.913 1.607 2.912 3.733 6.765 6.542 11.874 2.575 4.702 7.935 6.348 13.609 8.089 1.744.535 4.446 1.364 5.893 2.06l7.223 45.385c-51.207-3.792-98.996-25.352-135.994-61.668-2.957-2.902-7.706-2.857-10.606.099-2.901 2.956-2.857 7.705.099 10.606 43.732 42.926 101.568 66.567 162.854 66.567 62.101 0 120.486-24.185 164.4-68.1 43.915-43.914 68.1-102.3 68.1-164.4 0-24.291-3.731-48.229-11.092-71.149zm-285.889-98.351 9.373-27.186h110.217l9.372 27.186zm52.484 15c-2.192 2.904-4.509 6.107-6.97 9.633-5.307 7.593-10.049 7.031-18.669 5.279-.671-.137-1.333-.271-1.985-.396-5.38-1.036-10.129-1.952-11.57-14.516zm178.343-57.186h-100.542l-7.585-22h92.434zm-116.409 0h-99.874l7.585-22h84.705zm124.986 82.387c-3.502 6.313-7.378 11.709-10.823 16.37-11.099 15.007-29.095 23.946-37.991 26.867-.265.089-1.531-.046-3.327-1.22-3.158-2.065-5.243-5.409-5.435-7.451-1.229-13.055-3.804-22.494-6.403-30.75-1.427-4.532-.717-18.277.27-27.021.175-.65.299-1.315.371-1.996h41.499c7.947 7.872 15.239 16.288 21.839 25.201zm-94.575-40.201-9.373-27.186h106.07l19.393 27.186zm59.605-79.186h-86.905l-5.453-15.814h81.076zm-171.682-15.814h63.457l5.452 15.814h-74.362zm-26.49 30.814-7.585 22h-100.541l15.693-22zm-118.826 37h106.07l-9.372 27.186h-116.09zm.078 107.63c-.045.139-.083.231-.1.279.019-.05.036-.099.054-.148zm104.116 66.883c-9.303.385-13.842 4.581-16.011 8.033-3.574 5.686-2.754 12.566-.796 17.106 1.076 2.498 3.382 6.015 6.574 10.882 4.31 6.571 10.211 15.571 14.114 23.921 5.326 11.395 4.1 15.454 3.598 16.427-1.575 3.048-3.136 3.34-3.724 3.45-2.782.518-8.466-1.32-16.092-8.052-3.297-2.907-7.995-4.188-13.942-5.811-8.254-2.252-18.527-5.054-22.298-12.402-1.741-3.387-3.619-8.226-5.608-13.348-2.53-6.519-5.398-13.905-8.789-20.374-4.513-8.615-15.894-17.136-28.158-25.833-2.285-1.621-5.1-3.617-5.989-4.397-4.383-5.845-11.82-23.571-12.269-28.317-.364-3.896 3.856-22.965 5.303-28.249l7.027-20.004c1.541-4.399-.159-9.325-4.71-20.347-.025-.061-.05-.122-.075-.183 6.511-8.722 13.725-17.021 21.613-24.83h86.829c1.658 17.733 8.842 26.364 23.796 29.244.602.116 1.214.241 1.834.367 3.042.618 6.816 1.386 10.923 1.386 7.383 0 15.838-2.482 23.033-12.775 5.289-7.577 9.967-13.695 13.933-18.222h19.223c2.413 9.908 1.31 22.666.155 25.686-1.003 1.023-4.568 2.817-7.198 4.142-9.526 4.794-23.923 12.04-26.113 29.105-.304 2.386-.3 5.309-.296 8.693.005 4.216.02 15.415-2.116 17.49-1.896 1.845-3.596 3.763-5.063 5.708l-46.385 42.561c-5.879-.428-11.113-1.011-11.175-1.018-.382-.042-.765-.057-1.148-.039zm59.873 45.551c1.21-3.752-.222-7.912-3.482-10.117l-34.167-23.104 47.037-43.16c.074-.065.146-.132.218-.2l38.826-35.626-22.475 69.461c-1.217 3.754.215 7.918 3.479 10.125l34.167 23.105-60.848 55.831c-.112.097-.222.197-.328.301l-24.906 22.852zm11.909 194.119-7.953-49.975c-1.241-7.867-9.45-10.386-16.045-12.41-1.712-.525-4.185-1.284-5.349-1.853-2.578-4.689-4.555-8.271-6.071-11.019-2.192-3.972-3.593-6.51-4.201-7.673-.488-5.153-.887-9.175-1.201-12.332-.101-1.015-.196-1.974-.284-2.867l39.237-36.001c28.911 5.067 32.988 10.491 33.031 10.552 4.204 6.221 6.295 10.325 7.679 13.041 1.932 3.791 4.846 9.518 12.489 8.305 5.028-.81 8.986-1.464 12.118-1.982 3.976-.658 7.122-1.179 8.83-1.4 3.755 2.683 6.796 4.829 9.26 6.569 3.24 2.287 5.97 4.214 7.431 5.343.209 5.751.382 10.253.519 13.79.209 5.417.351 9.101.357 10.787-2.765 4.597-4.905 8.18-6.577 10.979-2.296 3.843-3.975 6.653-4.835 7.989-2.867 1.282-5.236 2.323-7.196 3.184-9.692 4.258-12.957 5.692-14.229 11.71-.39 1.86-.76 3.908-1.153 6.077-1.374 7.593-3.22 17.781-6.926 23.884-15.406 3.472-31.424 5.305-47.862 5.305-.356 0-.713-.001-1.069-.003z"/></g></svg>