<svg width="80" height="80" viewBox="0 0 80 80" fill="none" xmlns="http://www.w3.org/2000/svg">
<g opacity="0.8" clip-path="url(#clip0)">
<path d="M78.8281 77.5269H76.2592C75.8894 75.7619 74.7573 74.2458 73.1798 73.4978C72.0398 72.9575 70.9314 72.9281 70.1128 73.0324C69.6816 71.5833 68.6866 70.4055 67.3391 69.7666C66.0659 69.163 64.8375 69.2266 63.9781 69.4117C63.9394 69.1303 63.9781 56.0513 63.9781 56.0513L67.91 52.1194H71.212C75.4909 52.1194 78.972 48.6383 78.972 44.3594V41.1969C78.972 40.2061 78.1659 39.4 77.1752 39.4H74.0127C69.7337 39.4 66.2527 42.8811 66.2527 47.16V50.462L63.9781 52.7366V39.3125L66.3127 36.978C69.3381 33.9524 69.3381 29.0292 66.3125 26.0038L64.0762 23.7677C63.7369 23.4281 63.2856 23.2413 62.8056 23.2413C62.3256 23.2413 61.8744 23.4281 61.5352 23.7675L59.2987 26.0038C56.2733 29.0294 56.2733 33.9525 59.2987 36.978L61.6342 39.3135V59.7508L59.3766 57.4931V52.6636C59.3766 46.9195 54.7036 42.2466 48.9595 42.2466H44.2694C43.2786 42.2466 42.4725 43.0527 42.4725 44.0434V48.7336C42.4725 54.4777 47.1456 59.1506 52.8897 59.1506H57.7191L61.6342 63.0658V67.323C59.8428 65.6708 57.1213 63.9336 53.4255 63.646C53.3541 63.6403 52.6981 63.5936 51.6883 63.6652C51.0427 63.7111 50.5566 64.2716 50.6023 64.9172C50.6483 65.5628 51.2092 66.0469 51.8544 66.0031C52.7063 65.9422 53.2377 65.982 53.2433 65.9827C58.0106 66.3535 60.8556 69.6816 61.8577 71.0953C62.3534 71.7947 63.2666 72.0885 64.0784 71.8113C64.6353 71.6206 65.4794 71.4784 66.3347 71.8842C67.1266 72.2599 67.72 73.0183 67.9217 73.9128C68.1528 74.9369 69.1505 75.5852 70.1917 75.3914C70.6859 75.2989 71.4314 75.2628 72.1756 75.6156C72.9481 75.982 73.5377 76.6808 73.8344 77.5269H37.1578C37.2747 76.8283 37.643 76.2016 38.1845 75.8502C38.7448 75.4864 39.3608 75.4695 39.7791 75.5208C40.7762 75.6402 41.7144 74.9599 41.9166 73.9705C42.2028 72.5706 42.7492 71.3019 43.5409 70.1992C44.4272 68.965 45.6005 67.9784 47.0281 67.2674C47.6075 66.9788 47.8433 66.2752 47.5547 65.6958C47.2659 65.1166 46.563 64.881 45.9831 65.1692C44.2102 66.0522 42.748 67.2847 41.6369 68.8322C40.7164 70.1144 40.0638 71.5697 39.6942 73.1624C39.4756 73.1511 39.2375 73.1533 38.9872 73.1753C38.5886 71.6839 37.5795 70.4333 36.1736 69.7663C34.7025 69.0691 33.2881 69.2625 32.4348 69.5056C30.9772 67.5356 27.1242 63.5985 21.5141 63.6255V56.1988L25.4372 52.2756H28.7392C33.0181 52.2756 36.4992 48.7945 36.4992 44.5156V41.3531C36.4992 40.3624 35.6931 39.5563 34.7023 39.5563H31.5398C27.2609 39.5563 23.7798 43.0374 23.7798 47.3163V50.6183L21.5141 52.8841V35.1049L25.4372 31.1817H28.7392C33.0181 31.1817 36.4992 27.7006 36.4992 23.4217V20.2592C36.4992 19.2685 35.6931 18.4624 34.7023 18.4624H31.5398C27.2609 18.4624 23.7798 21.9435 23.7798 26.2225V29.5245L21.5141 31.7903V16.2011L23.8488 13.8664C26.8742 10.8408 26.8742 5.91767 23.8486 2.8922L21.6125 0.655953C21.2731 0.316422 20.8219 0.129547 20.3419 0.129547C19.8619 0.129547 19.4106 0.316422 19.0714 0.655797L16.835 2.89205C13.8095 5.91767 13.8095 10.8408 16.835 13.8663L19.1703 16.2016V38.822L16.9039 36.5556V31.7261C16.9039 30.1424 16.5572 28.621 15.8736 27.2042C15.5925 26.6214 14.8925 26.3767 14.3087 26.658C13.7259 26.9392 13.4814 27.6399 13.7627 28.2227C14.2919 29.3192 14.5602 30.498 14.5602 31.726V34.2117L9.97188 29.6236C9.51406 29.166 8.77219 29.166 8.31453 29.6236C7.85688 30.0813 7.85688 30.8233 8.31453 31.2808L12.903 35.8692H10.417C5.96547 35.8692 2.34375 32.2475 2.34375 27.796V23.6527H6.48703C7.93187 23.6527 9.34906 24.0386 10.5855 24.7688C11.1428 25.0978 11.8612 24.913 12.1903 24.3555C12.5194 23.7983 12.3344 23.0797 11.777 22.7506C10.18 21.8075 8.35063 21.3089 6.48687 21.3089H1.79688C0.806094 21.3089 0 22.115 0 23.1058V27.796C0 33.5399 4.67297 38.213 10.417 38.213H15.2467L19.1705 42.1367V62.2585L17.6902 60.7781V56.6724C17.6902 51.6216 13.5811 47.5124 8.53031 47.5124H4.56281C3.57203 47.5124 2.76594 48.3185 2.76594 49.3092V53.2766C2.76594 58.3274 6.87516 62.4366 11.9259 62.4366H16.0336L17.7067 64.1095C15.3272 64.705 12.4986 66.0097 10.4716 68.8324C9.55375 70.1111 8.90156 71.5645 8.52953 73.1617C7.75297 73.1224 6.72984 73.2439 5.74344 73.8841C4.53578 74.6677 3.77 76.038 3.63328 77.5266H1.17188C0.524531 77.5266 0 78.0511 0 78.6985C0 79.3458 0.524531 79.8703 1.17188 79.8703H78.8281C79.4755 79.8703 80 79.3458 80 78.6985C80 78.0511 79.4755 77.5269 78.8281 77.5269ZM68.5964 47.1599C68.5964 44.1733 71.0261 41.7436 74.0127 41.7436H76.6283V44.3592C76.6283 47.3458 74.1986 49.7755 71.212 49.7755H70.2537L72.618 47.4113C73.0756 46.9535 73.0756 46.2116 72.618 45.7539C72.1602 45.2964 71.4183 45.2964 70.9606 45.7539L68.5964 48.1181V47.1599ZM57.033 55.1494L52.4448 50.5611C51.9872 50.1036 51.2453 50.1036 50.7875 50.5611C50.3298 51.0189 50.3298 51.7608 50.7875 52.2185L55.3758 56.8067H52.89C48.4383 56.8067 44.8166 53.185 44.8166 48.7335V44.5902H48.9598C53.4114 44.5902 57.0331 48.2119 57.0331 52.6635V55.1494H57.033ZM62.8058 31.483C62.1584 31.483 61.6339 32.0077 61.6339 32.6549V35.9983L60.9562 35.3206C58.8444 33.2088 58.8444 29.7727 60.9561 27.661L62.8058 25.8114L64.6553 27.661C66.7672 29.7728 66.7672 33.2089 64.6555 35.3206L63.9777 35.9985V32.6549C63.9777 32.0077 63.4531 31.483 62.8058 31.483ZM26.1236 47.3161C26.1236 44.3295 28.5533 41.8999 31.5398 41.8999H34.1555V44.5155C34.1555 47.502 31.7258 49.9317 28.7392 49.9317H27.7809L30.1452 47.5675C30.6028 47.1097 30.6028 46.3678 30.1452 45.9102C29.6873 45.4527 28.9455 45.4527 28.4878 45.9102L26.1236 48.2744V47.3161ZM26.1236 26.2224C26.1236 23.2358 28.5533 20.806 31.5398 20.806H34.1555V23.4216C34.1555 26.4081 31.7258 28.8378 28.7392 28.8378H27.7809L30.1452 26.4736C30.6028 26.016 30.6028 25.2739 30.1452 24.8164C29.6875 24.3589 28.9456 24.3586 28.4878 24.8164L26.1236 27.1806V26.2224ZM15.3464 58.4355L11.6541 54.7431C11.1962 54.2856 10.4544 54.2856 9.99672 54.7431C9.53906 55.201 9.53906 55.9428 9.99672 56.4005L13.6891 60.0928H11.9259C8.16734 60.0928 5.10969 57.0352 5.10969 53.2766V49.8563H8.53031C12.2888 49.8563 15.3464 52.9139 15.3464 56.6725V58.4355ZM19.17 9.54314V12.8867L18.4923 12.2091C16.3805 10.0972 16.3805 6.66111 18.4922 4.54939L20.3419 2.69986L22.1914 4.54939C24.3033 6.66127 24.3033 10.0974 22.1914 12.2091L21.5138 12.8867V9.54314C21.5138 8.89595 20.9892 8.37127 20.3419 8.37127C19.6945 8.37127 19.17 8.89595 19.17 9.54314ZM34.7977 77.5269H20.4361C20.405 77.5244 20.3741 77.5222 20.3423 77.5222C20.3106 77.5222 20.2797 77.5245 20.2486 77.5269H5.99297C6.11 76.828 6.47813 76.2014 7.01922 75.8505C7.58031 75.4863 8.19703 75.47 8.61453 75.5202C9.61422 75.6394 10.5523 74.9585 10.7511 73.972C11.0394 72.5691 11.5859 71.2995 12.3755 70.1995C15.7133 65.5514 22.0152 65.9777 22.078 65.9828C26.8481 66.3541 29.6914 69.6816 30.6938 71.0969C31.1911 71.7963 32.1052 72.0892 32.9127 71.811C33.4709 71.6209 34.3156 71.4795 35.1695 71.8839C36.0044 72.2802 36.587 73.0586 36.7708 73.9819C35.6431 74.7788 34.9291 76.098 34.7977 77.5269Z" fill="#97C45E"/>
</g>
<defs>
<clipPath id="clip0">
<rect width="80" height="80" fill="white"/>
</clipPath>
</defs>
</svg>
