<svg width="80" height="80" viewBox="0 0 80 80" fill="none" xmlns="http://www.w3.org/2000/svg">
<path d="M34.605 57.4719C34.605 56.8494 34.0717 56.344 33.4139 56.344C32.7561 56.344 32.2227 56.8487 32.2227 57.4719C32.2227 58.0945 32.7561 58.5992 33.4139 58.5992C34.0717 58.5992 34.605 58.0945 34.605 57.4719ZM28.4785 50.6335C28.4785 50.011 27.9452 49.5062 27.2874 49.5062C26.6296 49.5062 26.0962 50.011 26.0962 50.6335C26.0962 51.2561 26.6296 51.7608 27.2874 51.7608C27.9452 51.7608 28.4785 51.2561 28.4785 50.6335ZM77.7852 7.13437C76.3033 5.47848 74.2402 3.83785 71.9754 2.51583C68.2137 0.319787 64.8254 -0.50602 62.9127 0.306359C62.1162 0.644494 61.5855 1.25851 61.3984 2.03976C61.3862 2.08126 61.3752 2.12338 61.3668 2.16671L59.2355 13.6084C59.013 14.7998 58.5693 15.9314 57.916 16.9714C57.5813 17.5042 57.5065 18.1433 57.6993 18.7268C57.3072 19.212 57.1466 19.8364 57.2685 20.4455C57.5071 21.6345 57.5149 22.8418 57.293 24.0332L55.686 32.6581L55.33 30.7464C55.1081 29.5544 55.1159 28.3471 55.3545 27.1582C55.4764 26.5497 55.3158 25.9253 54.9237 25.4394C55.1165 24.8559 55.0417 24.2175 54.707 23.6847C54.0537 22.644 53.6094 21.5124 53.3876 20.321L51.3103 9.16989C51.302 9.12655 51.291 9.08383 51.2781 9.04233C51.0911 8.26108 50.561 7.64767 49.7645 7.30954C47.8518 6.49716 44.4635 7.32296 40.7012 9.51901C38.4363 10.841 36.3733 12.4817 34.892 14.1375C33.7305 15.4358 32.4123 17.334 32.7232 19.0033L33.5841 23.6261C33.8066 24.8175 33.7982 26.0248 33.5603 27.2137C33.4384 27.8229 33.5989 28.4472 33.9904 28.9331C33.7976 29.5166 33.873 30.155 34.2077 30.6878C34.861 31.7279 35.3047 32.8595 35.5265 34.0515L37.8353 46.4422L35.5884 43.7579C33.8575 41.69 31.2664 40.5035 28.4785 40.5035C25.6912 40.5035 23.0994 41.69 21.3685 43.7579L16.0127 50.1575C10.7503 56.4447 6.27732 63.3246 2.71815 70.6042L0.309463 75.5322C-0.169694 76.5112 -0.088437 77.6385 0.525503 78.548C1.13944 79.4574 2.18675 80 3.32628 80H5.47636C6.1606 80 6.71456 79.4757 6.71456 78.8281C6.71456 78.1805 6.1606 77.6562 5.47636 77.6562H3.32628C2.9071 77.6562 2.68719 77.3969 2.61174 77.2858C2.53629 77.1747 2.38022 76.8768 2.55692 76.5167L4.96561 71.5887C8.44288 64.4763 12.8127 57.7551 17.9538 51.6125L23.3096 45.213C24.5678 43.7097 26.4522 42.8473 28.4785 42.8473C30.5054 42.8473 32.3891 43.7097 33.6473 45.213L39.0038 51.6125C39.2592 51.9183 39.5113 52.2266 39.7635 52.5348C39.7667 52.5384 39.77 52.5421 39.7725 52.5464C44.5809 58.4344 48.6895 64.834 51.9914 71.5887L53.1954 74.0509C53.1967 74.054 53.198 74.0564 53.1992 74.0594L54.4007 76.5167C54.5767 76.8768 54.4207 77.1747 54.3452 77.2858C54.2704 77.3975 54.0499 77.6562 53.6307 77.6562H11.1437C10.4595 77.6562 9.9055 78.1812 9.9055 78.8281C9.9055 79.4757 10.4595 80 11.1437 80H53.6307C54.7709 80 55.8182 79.4574 56.4321 78.548C57.046 77.6392 57.1273 76.5118 56.6481 75.5322L56.1155 74.4415L61.8105 73.4912C62.5522 73.3679 63.1816 72.9071 63.4956 72.2601C63.8091 71.6125 63.7665 70.8606 63.3821 70.2478C63.0797 69.7668 62.8243 69.2651 62.6128 68.7476L67.739 69.6033C67.8719 69.6252 68.0047 69.6362 68.1363 69.6362C68.7438 69.6362 69.3332 69.4073 69.7672 68.9905C70.2961 68.4839 70.5276 67.7637 70.3876 67.0642C70.1497 65.8752 70.1413 64.668 70.3631 63.4766L72.7589 50.6201C72.9808 49.4281 73.4244 48.2965 74.0784 47.2565C74.4124 46.7236 74.4879 46.0852 74.2951 45.5017C74.6865 45.0159 74.8477 44.3915 74.7252 43.7823C74.4872 42.5934 74.4788 41.3861 74.7013 40.1947L75.7912 34.3451C75.9099 33.7073 75.4604 33.1 74.7865 32.9876C74.1138 32.8741 73.4709 33.3008 73.3522 33.938L72.2623 39.7876C72.0037 41.1767 71.9986 42.5824 72.2456 43.9697L57.3298 41.4807L56.8719 39.0228C57.0712 38.4546 57.2285 37.876 57.3362 37.2973L59.732 24.4409C59.9906 23.0523 59.9958 21.6467 59.7482 20.2588L76.153 22.9968C75.4191 24.2206 74.9161 25.5432 74.6575 26.9317L74.3699 28.4753C74.2512 29.1131 74.7007 29.721 75.374 29.8333C75.4468 29.8456 75.5191 29.851 75.5906 29.851C76.1801 29.851 76.7024 29.4513 76.8089 28.8824L77.0965 27.3388C77.3183 26.1468 77.762 25.0152 78.4159 23.9752C78.7506 23.4424 78.8254 22.8039 78.6326 22.2204C79.0241 21.7346 79.1846 21.1102 79.0628 20.5011C78.8248 19.3121 78.8164 18.1048 79.0389 16.9134L79.954 12.0007C80.2642 10.3302 78.946 8.43258 77.7852 7.13437ZM35.2828 18.7249C35.1777 18.681 35.1738 18.6596 35.1622 18.5962C34.9506 17.4603 37.5096 14.1363 42.0019 11.5142C45.565 9.43417 48.0323 9.14181 48.7508 9.4476C48.8559 9.49215 48.8597 9.51352 48.8714 9.57638C49.0829 10.7129 46.5233 14.0374 42.0316 16.6589C38.4686 18.7396 36.0012 19.0307 35.2828 18.7249ZM36.0231 23.219L35.6394 21.159C35.7535 21.1651 35.8683 21.17 35.9876 21.17C37.921 21.17 40.5219 20.2942 43.3317 18.6541C45.5966 17.3321 47.6596 15.6915 49.1416 14.0356C49.2931 13.8653 49.4485 13.6847 49.6014 13.4961L50.9492 20.7281C51.2078 22.1167 51.7102 23.4393 52.4441 24.6637L36.0405 27.4011C36.2875 26.0132 36.2824 24.6075 36.0231 23.219ZM40.9449 50.1575L40.5122 49.6399C40.6032 48.587 40.5535 47.5336 40.3607 46.5002L37.9655 33.6444C37.7069 32.2552 37.2039 30.9326 36.47 29.7088L52.8749 26.9714C52.6272 28.3587 52.633 29.7644 52.8916 31.1535L55.2868 44.01C55.5454 45.3985 56.0484 46.7212 56.7823 47.9449L41.2571 50.5359C41.1526 50.4101 41.0494 50.2832 40.9449 50.1575ZM71.8148 46.2775C71.0815 47.5012 70.5785 48.8244 70.3199 50.213L67.9248 63.0695C67.6662 64.458 67.6604 65.8636 67.9074 67.2516L61.9453 66.2561L59.6675 54.0283C59.4457 52.8363 59.4534 51.6296 59.6914 50.4407C59.8139 49.8315 59.6534 49.2071 59.2613 48.7213C59.4541 48.1378 59.3793 47.4994 59.0446 46.9659C58.4532 46.0242 58.0347 45.0067 57.7961 43.938L71.8148 46.2775ZM57.2118 50.2533C56.9641 51.6412 56.9699 53.0463 57.2292 54.4354L59.6243 67.2913C59.8829 68.6804 60.3853 70.003 61.1192 71.2268L55.0391 72.2412L54.2395 70.6042C51.1414 64.2682 47.3507 58.2361 42.9512 52.633L57.2118 50.2533ZM76.5999 16.5057C76.3413 17.8949 76.3355 19.2999 76.5825 20.6878L60.1789 17.9504C60.9128 16.726 61.4152 15.4034 61.6738 14.0149L63.0758 6.49289C63.2287 6.68148 63.3841 6.86215 63.5356 7.03244C65.0176 8.68893 67.0806 10.3289 69.3455 11.651C72.1553 13.291 74.7561 14.1668 76.6895 14.1668C76.8089 14.1668 76.9243 14.1626 77.0378 14.1559L76.5999 16.5057ZM77.515 11.593V11.596C77.5034 11.6571 77.4976 11.6784 77.3944 11.7224C76.676 12.0276 74.2086 11.7364 70.6456 9.65573C66.1533 7.03427 63.5943 3.71029 63.8058 2.57382C63.8174 2.51095 63.8213 2.48959 63.9264 2.44503C64.078 2.38033 64.3076 2.34249 64.6094 2.34249C65.736 2.34249 67.8648 2.87045 70.6753 4.51107C75.1669 7.13253 77.7259 10.4565 77.515 11.593ZM40.2665 71.2952C40.2665 70.6726 39.7332 70.1678 39.0754 70.1678C38.4176 70.1678 37.8843 70.6726 37.8843 71.2952C37.8843 71.9183 38.4176 72.4231 39.0754 72.4231C39.7332 72.4231 40.2665 71.9183 40.2665 71.2952ZM12.665 73.692C12.665 73.0695 12.1317 72.5647 11.4739 72.5647C10.8161 72.5647 10.2828 73.0695 10.2828 73.692C10.2828 74.3146 10.8161 74.8193 11.4739 74.8193C12.1317 74.8193 12.665 74.3146 12.665 73.692ZM17.1522 63.2361C17.1522 62.6135 16.6189 62.1088 15.9611 62.1088C15.3033 62.1088 14.7699 62.6135 14.7699 63.2361C14.7699 63.8586 15.3033 64.3634 15.9611 64.3634C16.6189 64.3634 17.1522 63.8586 17.1522 63.2361ZM22.1624 70.1684C22.1624 69.5459 21.629 69.0411 20.9713 69.0411C20.3135 69.0411 19.7801 69.5459 19.7801 70.1684C19.7801 70.791 20.3135 71.2958 20.9713 71.2958C21.629 71.2952 22.1624 70.791 22.1624 70.1684Z" fill="#97C45E"/>
</svg>
