<svg id="Capa_1" enable-background="new 0 0 512 512" height="512" viewBox="0 0 512 512" width="512" xmlns="http://www.w3.org/2000/svg"><g><path d="m508.772 249.117-54.035-59.916c-2.359-2.609-5.728-4.105-9.245-4.105s-6.886 1.497-9.249 4.112l-54.016 59.906c-3.345 3.705-4.163 8.839-2.137 13.398 1.997 4.494 6.465 7.397 11.384 7.397h24.114c-2.004 43.603-21.342 83.651-53.803 112.244v-74.403c0-6.906-5.618-12.524-12.524-12.524h-85.774v-4.442c0-26.321 22.257-36.67 22.556-36.964.585.41 1.193.794 1.833 1.133 8.768 4.648 18.303 6.964 27.821 6.964 10.211 0 20.403-2.666 29.608-7.981 17.788-10.269 28.851-28.672 29.595-49.226.244-6.735-3.445-13.125-9.399-16.282-18.175-9.634-39.644-9.253-57.429 1.017-17.788 10.269-28.851 28.672-29.595 49.226-.026.726.002 1.446.065 2.16-1.046.699-8.001 3.998-15.054 11.653v-68.584c34.689-3.049 63.466-27.006 73.595-59.172 22.098 13.045 40.819 31.24 54.491 53.102 4.821 7.673 15.647 8.621 21.752 1.873l22.209-24.631c4.256-4.739 4.698-11.72 1.075-16.978-26.205-38.005-64.38-67.213-107.724-82.507-14.877-24.745-41.982-41.34-72.898-41.34-30.931 0-58.047 16.612-72.919 41.377-31.554 11.125-60.57 29.644-84.048 53.723-2.892 2.965-2.831 7.714.134 10.605 2.964 2.89 7.713 2.834 10.606-.134 18.468-18.941 40.61-34.193 64.742-44.723-3.308 11.14-4.281 22.578-2.898 34.229-55.895 30.825-90.395 88.985-90.395 153.086 0 4.142 3.357 7.5 7.5 7.5h26.065l-48.295 53.57-48.303-53.57h26.064c4.143 0 7.5-3.358 7.5-7.5 0-41.965 12.633-82.282 36.534-116.591 2.367-3.399 1.531-8.074-1.867-10.441-3.401-2.37-8.074-1.532-10.441 1.867-24.234 34.789-37.679 75.323-39.099 117.665h-24.416c-4.915 0-9.382 2.903-11.379 7.397-1.997 4.492-1.16 9.751 2.128 13.395l54.036 59.926c2.358 2.61 5.728 4.106 9.245 4.106s6.886-1.498 9.249-4.113l54.007-59.906c3.299-3.643 4.143-8.9 2.149-13.395-1.996-4.501-6.466-7.409-11.388-7.409h-24.116c2.496-54.092 31.892-102.747 78.507-130.189 10.127 32.17 38.906 56.13 73.598 59.179v68.584c-6.878-7.465-14.305-11.152-15.054-11.653.063-.714.091-1.434.065-2.159-.743-20.555-11.807-38.958-29.595-49.227-17.786-10.269-39.255-10.65-57.429-1.017-5.954 3.156-9.643 9.547-9.399 16.282.744 20.555 11.807 38.957 29.595 49.226 9.206 5.315 19.396 7.981 29.608 7.981 9.518 0 19.054-2.317 27.821-6.964.64-.339 1.248-.723 1.833-1.133l1.822 1.052c12.789 7.384 20.733 21.144 20.733 35.912v4.442h-85.774c-6.906 0-12.524 5.618-12.524 12.524v74.408c-11.554-10.192-21.538-21.964-29.783-35.141-4.82-7.695-15.656-8.646-21.756-1.882l-22.198 24.609c-4.277 4.74-4.722 11.727-1.086 16.982 19.317 28.008 45.126 51.338 74.823 67.734v30.769c0 6.905 5.618 12.523 12.524 12.523h120.59c4.143 0 7.5-3.358 7.5-7.5s-3.357-7.5-7.5-7.5h-118.115v-172.527h57.396v52.245c0 3.678 2.042 6.99 5.328 8.642 3.284 1.653 7.162 1.316 10.115-.879l17.959-13.35 17.96 13.351c2.938 2.183 6.815 2.539 10.114.878 3.286-1.652 5.328-4.963 5.328-8.642v-52.245h57.396v172.527h-28.482c-4.143 0-7.5 3.358-7.5 7.5s3.357 7.5 7.5 7.5h30.958c6.906 0 12.524-5.618 12.524-12.524v-30.759c67.589-37.291 110.71-107.427 113.316-184.56h24.422c4.987 0 9.347-2.83 11.376-7.385 2.029-4.557 1.217-9.692-2.127-13.408zm-193.201-46.682c6.874-3.969 14.484-5.959 22.111-5.959 7.112 0 14.24 1.732 20.793 5.206.909.482 1.472 1.458 1.435 2.486-.555 15.359-8.819 29.109-22.104 36.779-11.063 6.387-24.032 7.632-35.905 3.719l31.939-18.44c3.587-2.071 4.816-6.658 2.745-10.245-2.071-3.588-6.66-4.817-10.245-2.745l-31.943 18.442c2.545-12.242 10.108-22.854 21.174-29.243zm-141.402 38.511c-13.285-7.67-21.549-21.419-22.104-36.779-.037-1.028.525-2.004 1.435-2.486 6.554-3.474 13.68-5.206 20.793-5.206 7.626 0 15.237 1.991 22.111 5.959 11.065 6.388 18.628 17 21.174 29.242l-31.943-18.442c-3.589-2.072-8.175-.842-10.245 2.745-2.071 3.587-.842 8.174 2.745 10.245l31.939 18.44c-11.872 3.914-24.841 2.67-35.905-3.718zm249.53-95.146-20.357 22.576c-15.755-24.64-37.424-44.941-62.971-59.053 1.38-11.631.415-23.075-2.901-34.238 34.447 15.057 64.624 39.706 86.229 70.715zm-237.713-46.552c0-38.599 31.402-70.001 70.001-70.001s70.001 31.403 70.001 70.001c0 38.599-31.402 70.002-70.001 70.002s-70.001-31.402-70.001-70.002zm-97.706 279.778 20.352-22.562c11.147 17.429 25.111 32.569 41.556 45.07v35.614c-24.341-14.784-45.565-34.673-61.908-58.122zm186.109-27.154-12.631-9.389c-3.453-2.568-8.091-2.567-11.542-.001l-12.632 9.39v-41.646h36.804v41.646zm198.234-96.962c-6.713 0-12.297 5.446-12.448 12.142-1.559 69.976-38.932 134.042-98.39 170.089v-35.613c19.773-15.069 36.374-34.451 48.142-56.281 12.947-24.016 19.93-50.085 20.753-77.467.107-3.355-1.171-6.664-3.508-9.077-2.335-2.411-5.597-3.794-8.948-3.794h-21.025l48.296-53.561 48.303 53.561h-21.175z"/><path d="m263.487 145.283v-6.069c10.835-2.098 19.337-9.823 21.14-19.923 1.591-8.914-2.494-20.572-18.731-26.561l-2.943-1.083c-7.783-2.863-11.69-4.3-15.299-6.266-2.097-1.142-2.209-3.251-2.09-4.407.245-2.372 1.954-5.342 6.015-6.565 9.729-2.929 18.664 4.158 18.898 4.347 3.17 2.633 7.877 2.216 10.532-.944 2.665-3.171 2.255-7.902-.915-10.567-.407-.342-7.015-5.786-16.607-7.805v-6.225c0-4.142-3.357-7.5-7.5-7.5s-7.5 3.358-7.5 7.5v6.496c-.41.106-.821.212-1.234.336-9.157 2.759-15.677 10.368-16.608 19.384-.831 8.039 2.937 15.367 9.835 19.123 4.573 2.491 9.092 4.153 17.295 7.17l2.931 1.079c3.079 1.136 10.135 4.369 9.156 9.851-.716 4.005-5.512 8.147-12.302 8.147-6.783 0-13.318-2.743-17.48-7.336-2.782-3.069-7.524-3.304-10.594-.521-3.069 2.781-3.303 7.524-.521 10.594 5.006 5.525 11.948 9.436 19.523 11.202v6.544c0 4.142 3.357 7.5 7.5 7.5 4.142-.002 7.499-3.359 7.499-7.501z"/></g></svg>