<svg width="120" height="120" viewBox="0 0 120 120" fill="none" xmlns="http://www.w3.org/2000/svg">
<g clip-path="url(#clip0)">
<path d="M119.244 58.3869L106.579 44.3441C106.026 43.7326 105.237 43.382 104.412 43.382C103.588 43.382 102.799 43.7328 102.245 44.3457L89.5847 58.3862C88.8007 59.2545 88.609 60.4578 89.0838 61.5263C89.5519 62.5796 90.599 63.26 91.7519 63.26H97.4037C96.934 73.4795 92.4016 82.8657 84.7936 89.5672V72.129C84.7936 70.5104 83.4769 69.1937 81.8583 69.1937H61.755V68.1526C61.755 61.9836 66.9715 59.5581 67.0415 59.4892C67.1786 59.5853 67.3212 59.6753 67.4712 59.7547C69.5262 60.8441 71.7609 61.3869 73.9917 61.3869C76.3849 61.3869 78.7737 60.762 80.9311 59.5163C85.1001 57.1095 87.693 52.7963 87.8674 47.979C87.9246 46.4005 87.06 44.9028 85.6645 44.1629C81.4047 41.9049 76.3729 41.9942 72.2046 44.4013C68.0355 46.8081 65.4426 51.1213 65.2683 55.9386C65.2622 56.1088 65.2687 56.2775 65.2835 56.4449C65.0383 56.6087 63.4083 57.3819 61.7552 59.176V43.1017C69.8854 42.387 76.6301 36.7721 79.004 29.2332C84.1833 32.2906 88.571 36.5551 91.7754 41.679C92.9053 43.4774 95.4426 43.6995 96.8735 42.118L102.079 36.3451C103.076 35.2344 103.18 33.5982 102.331 32.3659C96.1889 23.4585 87.2416 16.6128 77.0829 13.0283C73.5961 7.22869 67.2433 3.33923 59.9974 3.33923C52.7479 3.33923 46.3926 7.23267 42.907 13.037C35.5115 15.6444 28.7109 19.9848 23.2082 25.6283C22.5304 26.3232 22.5447 27.4363 23.2397 28.1138C23.9343 28.7912 25.0474 28.7781 25.7254 28.0824C30.0539 23.6431 35.2434 20.0685 40.8993 17.6005C40.124 20.2114 39.896 22.8922 40.2201 25.6229C27.1197 32.8475 19.0338 46.4788 19.0338 61.5024C19.0338 62.4732 19.8206 63.2603 20.7916 63.2603H26.9006L15.5814 75.8157L4.26043 63.2603H10.3692C11.3402 63.2603 12.127 62.4732 12.127 61.5024C12.127 51.6669 15.0879 42.2176 20.6897 34.1764C21.2444 33.3798 21.0485 32.2841 20.2521 31.7293C19.455 31.1738 18.3597 31.3702 17.805 32.1669C12.1251 40.3206 8.97394 49.8207 8.64113 59.7446H2.91863C1.76668 59.7446 0.719724 60.425 0.251677 61.4783C-0.21637 62.5311 -0.0201979 63.7637 0.750427 64.6177L13.4151 78.6629C13.9678 79.2746 14.7576 79.6253 15.5819 79.6253C16.4062 79.6253 17.1958 79.2742 17.7497 78.6613L30.4075 64.6208C31.1807 63.767 31.3786 62.5349 30.9112 61.4813C30.4434 60.4264 29.3957 59.7449 28.2422 59.7449H22.59C23.175 47.067 30.0647 35.6635 40.99 29.2318C43.3636 36.7717 50.1086 42.3873 58.2396 43.1019V59.1763C56.6276 57.4267 54.8868 56.5625 54.7113 56.4451C54.7261 56.2778 54.7326 56.109 54.7265 55.9391C54.5524 51.1215 51.9593 46.8083 47.7902 44.4015C43.6216 41.9947 38.5898 41.9054 34.3303 44.1631C32.9348 44.9028 32.0702 46.4007 32.1274 47.9792C32.3018 52.7968 34.8947 57.1098 39.0637 59.5166C41.2214 60.7623 43.6097 61.3871 46.0031 61.3871C48.2339 61.3871 50.4689 60.8441 52.5236 59.7549C52.6736 59.6755 52.8161 59.5855 52.9533 59.4894L53.3803 59.736C56.3777 61.4666 58.2396 64.6916 58.2396 68.1528V69.1939H38.1363C36.5177 69.1939 35.201 70.5106 35.201 72.1292V89.5686C32.493 87.1799 30.153 84.4208 28.2206 81.3324C27.0909 79.5289 24.5512 79.306 23.1215 80.8913L17.9189 86.6591C16.9164 87.77 16.8121 89.4076 17.6643 90.6392C22.1918 97.2036 28.2407 102.672 35.201 106.514V113.726C35.201 115.344 36.5177 116.661 38.1363 116.661H66.3996C67.3706 116.661 68.1574 115.874 68.1574 114.903C68.1574 113.932 67.3706 113.145 66.3996 113.145H38.7164V72.7093H52.1686V84.9542C52.1686 85.8163 52.6472 86.5925 53.4173 86.9797C54.187 87.3671 55.0959 87.2881 55.788 86.7737L59.9972 83.6448L64.2065 86.7739C64.8951 87.2856 65.8038 87.369 66.577 86.9797C67.3472 86.5925 67.8258 85.8165 67.8258 84.9542V72.7093H81.2779V113.145H74.6025C73.6315 113.145 72.8447 113.932 72.8447 114.903C72.8447 115.874 73.6315 116.661 74.6025 116.661H81.8583C83.4769 116.661 84.7936 115.344 84.7936 113.726V106.516C100.635 97.7764 110.741 81.3383 111.352 63.2603H117.076C118.245 63.2603 119.267 62.597 119.742 61.5294C120.218 60.4613 120.027 59.2578 119.244 58.3869ZM73.9622 47.4458C75.5733 46.5156 77.3569 46.0492 79.1444 46.0492C80.8113 46.0492 82.4819 46.4551 84.0178 47.2693C84.2308 47.3823 84.3628 47.611 84.3541 47.852C84.224 51.4517 82.2872 54.6744 79.1735 56.472C76.5806 57.969 73.541 58.2608 70.7583 57.3437L78.244 53.0218C79.0847 52.5364 79.3727 51.4613 78.8873 50.6206C78.4019 49.7797 77.3264 49.4917 76.4862 49.9773L68.9995 54.2996C69.596 51.4304 71.3686 48.9432 73.9622 47.4458ZM40.8211 56.4718C37.7074 54.6742 35.7705 51.4517 35.6404 47.8517C35.6318 47.6108 35.7635 47.382 35.9768 47.2691C37.5129 46.4549 39.183 46.0489 40.8501 46.0489C42.6375 46.0489 44.4213 46.5156 46.0324 47.4456C48.6258 48.9428 50.3983 51.4299 50.9951 54.2992L43.5084 49.9768C42.6672 49.4912 41.5924 49.7795 41.1072 50.6202C40.6218 51.4609 40.9099 52.536 41.7506 53.0213L49.2363 57.3432C46.4538 58.2606 43.4142 57.969 40.8211 56.4718ZM99.3047 34.172L94.5335 39.4632C90.8409 33.6882 85.7622 28.9302 79.7747 25.6227C80.0981 22.8967 79.8719 20.2145 79.0947 17.5981C87.1683 21.1271 94.241 26.9042 99.3047 34.172ZM43.5907 23.2613C43.5907 14.2147 50.9505 6.85486 59.9972 6.85486C69.0438 6.85486 76.4037 14.2149 76.4037 23.2613C76.4037 32.308 69.0438 39.6681 59.9972 39.6681C50.9505 39.6681 43.5907 32.3082 43.5907 23.2613ZM20.6908 88.8343L25.4608 83.5463C28.0734 87.6313 31.3462 91.1797 35.2005 94.1096V102.457C29.4956 98.9917 24.5212 94.3302 20.6908 88.8343ZM64.3101 82.4701L61.3497 80.2695C60.5404 79.6677 59.4534 79.6679 58.6446 80.2693L55.684 82.4701V72.7093H64.3099V82.4701H64.3101ZM110.771 59.7446C109.198 59.7446 107.889 61.021 107.854 62.5904C107.488 78.991 98.729 94.0065 84.7936 102.455V94.1082C89.4279 90.5764 93.3187 86.0338 96.0769 80.9174C99.1113 75.2886 100.748 69.1787 100.941 62.761C100.966 61.9747 100.666 61.1992 100.119 60.6336C99.5714 60.0685 98.8069 59.7444 98.0215 59.7444H93.0937L104.413 47.191L115.734 59.7444H110.771V59.7446Z" fill="#97C45E"/>
<path d="M61.7548 34.0507V32.6283C64.2942 32.1366 66.2869 30.326 66.7095 27.9589C67.0824 25.8696 66.1249 23.1373 62.3194 21.7336L61.6296 21.4798C59.8055 20.8088 58.8898 20.472 58.0439 20.0112C57.5525 19.7435 57.5262 19.2492 57.5541 18.9783C57.6115 18.4224 58.0121 17.7263 58.9639 17.4396C61.2441 16.7531 63.3382 18.4142 63.3931 18.4585C64.136 19.0756 65.2392 18.9778 65.8615 18.2372C66.4861 17.494 66.39 16.3852 65.6471 15.7606C65.5517 15.6804 64.0029 14.4045 61.7548 13.9313V12.4723C61.7548 11.5015 60.968 10.7145 59.997 10.7145C59.026 10.7145 58.2392 11.5015 58.2392 12.4723V13.9948C58.1431 14.0196 58.0468 14.0445 57.95 14.0735C55.8038 14.7202 54.2757 16.5035 54.0575 18.6167C53.8627 20.5008 54.7458 22.2183 56.3625 23.0986C57.4343 23.6824 58.4935 24.072 60.416 24.7791L61.103 25.032C61.8246 25.2982 63.4784 26.056 63.2489 27.3408C63.0811 28.2795 61.9571 29.2503 60.3657 29.2503C58.7759 29.2503 57.2443 28.6074 56.2688 27.5309C55.6168 26.8116 54.5053 26.7565 53.7858 27.4088C53.0665 28.0606 53.0117 29.1722 53.6637 29.8917C54.837 31.1867 56.464 32.1033 58.2394 32.5172V34.051C58.2394 35.0217 59.0262 35.8088 59.9972 35.8088C60.968 35.8083 61.7548 35.0215 61.7548 34.0507Z" fill="#97C45E"/>
</g>
<defs>
<clipPath id="clip0">
<rect width="120" height="120" fill="white"/>
</clipPath>
</defs>
</svg>
