<svg width="110" height="110" viewBox="0 0 110 110" fill="none" xmlns="http://www.w3.org/2000/svg">
<path d="M1.71875 104.844H108.281V108.281H1.71875V104.844Z" fill="#97C45E"/>
<path d="M43.4311 13.6056C47.178 12.5623 51.0709 12.0312 55 12.0312C65.45 12.0312 75.4084 15.7764 83.2374 22.6136L79.1381 26.7128L98.6116 31.5803L93.7441 12.1069L90.5369 15.3141C80.7452 6.53469 68.1914 1.71875 55 1.71875C50.1806 1.71875 45.4025 2.36328 40.7928 3.63344L39.5312 3.98062V13.8308L43.0495 13.6658L43.4311 13.6056ZM42.9688 6.61891C46.8875 5.64781 50.93 5.15625 55 5.15625C67.8631 5.15625 80.08 10.053 89.3974 18.9423L90.6125 20.1008L91.8809 18.8323L93.8884 26.8589L85.8619 24.8514L88.1891 22.5242L86.9069 21.3108C78.2564 13.1089 66.923 8.59375 55 8.59375C50.9197 8.59375 46.8738 9.12484 42.9688 10.1681V6.61891Z" fill="#97C45E"/>
<path d="M3.63344 69.2072L3.98062 70.4687H13.8308L13.6658 66.9505L13.6039 66.5689C12.5623 62.822 12.0312 58.9291 12.0312 55C12.0312 44.5517 15.7764 34.5916 22.6136 26.7609L26.7128 30.8619L31.5803 11.3884L12.1069 16.2559L15.3141 19.4631C6.53469 29.2548 1.71875 41.8086 1.71875 55C1.71875 59.8194 2.36328 64.5975 3.63344 69.2072ZM18.9423 20.6026L20.1008 19.3875L18.8323 18.1191L26.8589 16.1116L24.8514 24.1381L22.5242 21.8092L21.3108 23.0914C13.1089 31.7453 8.59375 43.077 8.59375 55C8.59375 59.0803 9.12484 63.1262 10.1681 67.0312H6.61891C5.64781 63.1125 5.15625 59.07 5.15625 55C5.15625 42.1369 10.053 29.92 18.9423 20.6026Z" fill="#97C45E"/>
<path d="M96.3325 37.8933L96.3944 38.2748C97.4377 42.0217 97.9688 45.9147 97.9688 49.8437C97.9688 60.292 94.2236 70.2522 87.3864 78.0828L83.2872 73.9819L78.4197 93.4553L97.8931 88.5878L94.6859 85.3806C103.465 75.5889 108.281 63.0352 108.281 49.8437C108.281 45.0244 107.637 40.2462 106.367 35.6366L106.019 34.375H96.1692L96.3325 37.8933ZM103.381 37.8125C104.352 41.7312 104.844 45.7737 104.844 49.8437C104.844 62.7069 99.947 74.9237 91.0577 84.2411L89.8992 85.4562L91.1677 86.7247L83.1411 88.7322L85.1486 80.7056L87.4758 83.0345L88.6892 81.7523C96.8911 73.0984 101.406 61.7684 101.406 49.8437C101.406 45.7634 100.875 41.7175 99.8319 37.8125H103.381Z" fill="#97C45E"/>
<path d="M37.8125 67.0312H41.25V70.4688H37.8125V67.0312Z" fill="#97C45E"/>
<path d="M24.0625 67.0312H27.5V70.4688H24.0625V67.0312Z" fill="#97C45E"/>
<path d="M30.9375 67.0312H34.375V70.4688H30.9375V67.0312Z" fill="#97C45E"/>
<path d="M30.9375 73.9062H34.375V77.3438H30.9375V73.9062Z" fill="#97C45E"/>
<path d="M24.0625 73.9062H27.5V77.3438H24.0625V73.9062Z" fill="#97C45E"/>
<path d="M37.8125 73.9062H41.25V77.3438H37.8125V73.9062Z" fill="#97C45E"/>
<path d="M30.9375 80.7812H34.375V84.2188H30.9375V80.7812Z" fill="#97C45E"/>
<path d="M37.8125 80.7812H41.25V84.2188H37.8125V80.7812Z" fill="#97C45E"/>
<path d="M24.0625 80.7812H27.5V84.2188H24.0625V80.7812Z" fill="#97C45E"/>
<path d="M24.0625 87.6562H27.5V91.0938H24.0625V87.6562Z" fill="#97C45E"/>
<path d="M37.8125 87.6562H41.25V91.0938H37.8125V87.6562Z" fill="#97C45E"/>
<path d="M30.9375 87.6562H34.375V91.0938H30.9375V87.6562Z" fill="#97C45E"/>
<path d="M27.5 53.2812H30.9375V56.7188H27.5V53.2812Z" fill="#97C45E"/>
<path d="M41.25 53.2812H44.6875V56.7188H41.25V53.2812Z" fill="#97C45E"/>
<path d="M34.375 53.2812H37.8125V56.7188H34.375V53.2812Z" fill="#97C45E"/>
<path d="M48.125 53.2812H51.5625V56.7188H48.125V53.2812Z" fill="#97C45E"/>
<path d="M41.25 46.4062H44.6875V49.8438H41.25V46.4062Z" fill="#97C45E"/>
<path d="M48.125 46.4062H51.5625V49.8438H48.125V46.4062Z" fill="#97C45E"/>
<path d="M34.375 46.4062H37.8125V49.8438H34.375V46.4062Z" fill="#97C45E"/>
<path d="M27.5 46.4062H30.9375V49.8438H27.5V46.4062Z" fill="#97C45E"/>
<path d="M27.5 39.5312H30.9375V42.9688H27.5V39.5312Z" fill="#97C45E"/>
<path d="M41.25 39.5312H44.6875V42.9688H41.25V39.5312Z" fill="#97C45E"/>
<path d="M34.375 39.5312H37.8125V42.9688H34.375V39.5312Z" fill="#97C45E"/>
<path d="M48.125 39.5312H51.5625V42.9688H48.125V39.5312Z" fill="#97C45E"/>
<path d="M75.625 73.9062H80.7812C87.4139 73.9062 92.8125 68.5077 92.8125 61.875V60.1562H84.2188C80.8534 60.1562 77.8112 61.5484 75.625 63.7845V56.7188H80.7812C87.4139 56.7188 92.8125 51.3202 92.8125 44.6875V42.9688H84.2188C80.8036 42.9688 77.7253 44.4056 75.5322 46.6984C74.8241 40.7361 69.7434 36.0938 63.5938 36.0938H58.4375V32.6562H20.625V60.1562H17.1875V94.5312H1.71875V97.9688H108.281V94.5312H75.625V73.9062ZM84.2188 63.5938H89.2014C88.4022 67.5108 84.932 70.4688 80.7812 70.4688H75.7986C76.5961 66.5517 80.068 63.5938 84.2188 63.5938ZM84.2188 46.4062H89.2014C88.4022 50.3233 84.932 53.2812 80.7812 53.2812H75.7986C76.5961 49.3642 80.068 46.4062 84.2188 46.4062ZM72.1875 94.5312H58.4375V63.403C60.6237 65.6391 63.6659 67.0312 67.0312 67.0312H72.1875V72.1875V73.9062V94.5312ZM58.6111 56.7188H63.5938C67.7445 56.7188 71.2164 59.6767 72.0139 63.5938H67.0312C62.8805 63.5938 59.4086 60.6358 58.6111 56.7188ZM63.5938 39.5312C67.7445 39.5312 71.2164 42.4892 72.0139 46.4062H67.0312C62.8805 46.4062 59.4086 43.4483 58.6111 39.5312H63.5938ZM67.0312 49.8438H72.1875V55V56.7188V56.9095C70.0013 54.6734 66.9591 53.2812 63.5938 53.2812H58.4375V46.2155C60.6237 48.4516 63.6659 49.8438 67.0312 49.8438ZM24.0625 36.0938H55V37.8125V53.2812V55V94.5312H48.125V60.1562H24.0625V36.0938ZM20.625 63.5938H44.6875V94.5312H20.625V63.5938Z" fill="#97C45E"/>
</svg>
